<svg width="50" height="50" viewBox="0 0 50 50" fill="none" xmlns="http://www.w3.org/2000/svg">
<rect x="0.5" y="0.5" width="49" height="49" fill="#FFEC01" stroke="#FFEC01"/>
<path d="M13.5117 12C2.29025 12 2 20.0262 2 20.0262L2.02341 37.3625C2.02341 37.5303 2.07273 37.6912 2.16052 37.8098C2.24832 37.9284 2.36739 37.995 2.49155 37.995H10.6747C10.6747 37.995 11.5174 38.1468 11.48 36.7743C11.48 36.4265 11.48 28.8873 11.5268 27.9702C11.5529 25.5126 11.7093 23.0607 11.9949 20.6334C12.5099 18.211 15.9133 18.5841 15.2345 23.1633H12.6269L12.6503 28.8557C12.6503 28.8557 12.6503 29.6083 13.3947 29.6083C13.8631 29.587 14.332 29.6018 14.7991 29.6526C14.8506 29.6526 15.4171 29.6526 15.3843 30.8733L15.4171 37.9634H24.5319C24.656 37.9634 24.7751 37.8968 24.8629 37.7782C24.9507 37.6595 25 37.4987 25 37.3309V20.5765C25 20.5765 24.7332 12 13.5117 12Z" fill="#797A7D"/>
<path d="M25 12V18.9773C25 19.1455 25.0608 19.3069 25.1689 19.4258C25.2771 19.5448 25.4238 19.6116 25.5767 19.6116C25.5767 19.6116 29.8964 19.6116 30.0522 19.6116C30.2416 19.6499 30.4143 19.7558 30.5436 19.9129C30.6728 20.0699 30.7515 20.2695 30.7673 20.4806V37.3657C30.7673 37.5339 30.8281 37.6953 30.9362 37.8142C31.0444 37.9332 31.1911 38 31.344 38H41.6733C41.8262 38 41.9729 37.9332 42.0811 37.8142C42.1892 37.6953 42.25 37.5339 42.25 37.3657V20.3791C42.2745 20.1826 42.3593 20.0012 42.4904 19.8651C42.6216 19.7289 42.7911 19.6462 42.9709 19.6306H47.4233C47.5762 19.6306 47.7229 19.5638 47.8311 19.4449C47.9392 19.3259 48 19.1646 48 18.9963V12.019L25 12Z" fill="#797A7D"/>
</svg>
