<svg width="1186" height="253" viewBox="0 0 1186 253" fill="none" xmlns="http://www.w3.org/2000/svg">
<path d="M510.728 186.64H498.776V160H456.728V154.24L496.616 88.288H510.728V150.064H525.272L522.68 160H510.728V186.64ZM498.776 150.064V102.544L469.976 150.064H498.776ZM533.634 124.288C533.634 113.536 536.754 104.608 542.994 97.504C549.33 90.304 557.778 86.704 568.338 86.704C578.802 86.704 587.202 90.304 593.538 97.504C599.874 104.704 603.042 113.632 603.042 124.288C603.042 134.944 599.874 143.872 593.538 151.072C587.202 158.272 578.802 161.872 568.338 161.872C557.874 161.872 549.474 158.272 543.138 151.072C536.802 143.872 533.634 134.944 533.634 124.288ZM568.338 152.8C582.738 152.8 589.938 143.296 589.938 124.288C589.938 105.28 582.738 95.776 568.338 95.776C553.842 95.776 546.594 105.28 546.594 124.288C546.594 143.296 553.842 152.8 568.338 152.8ZM665.556 186.64H653.604V160H611.556V154.24L651.444 88.288H665.556V150.064H680.1L677.508 160H665.556V186.64ZM653.604 150.064V102.544L624.804 150.064H653.604Z" fill="#FFEC01"/>
<path d="M128.4 97.54C129.783 102.512 132.111 106.939 135.163 110.401C138.216 113.862 141.892 116.243 145.843 117.318C156.542 121.757 167.611 124.488 178.809 125.452C215.79 127.792 251.478 118.02 287.165 105.323C312.712 96.0381 338.288 86.7927 363.894 77.5862C391.641 67.6386 419.209 56.5207 447.269 48.3285C505.261 30.7739 563.699 24.2201 622.584 34.0507C645.469 37.9128 667.996 48.3285 689.855 58.6857C744.992 84.9007 801.379 103.216 859.951 107.371C911.564 111.057 963.222 113.632 1014.75 119.074C1063.01 123.93 1111.28 130.016 1158.52 145.523C1167.09 148.331 1175.88 150.145 1184.53 152.427L1185.6 149.619C1179.4 144.996 1173.33 139.964 1166.95 135.868C1130.65 113.209 1091.15 100.714 1050.97 99.1784C991.103 94.9653 931.371 93.0343 871.549 89.4649C826.008 86.1596 781.118 73.7477 738.435 52.6587C709.751 38.966 681.29 24.2201 652.16 12.4585C618.926 -1.00001 584.711 -2.28735 550.094 2.62794C493.44 10.6446 438.302 28.3162 383.566 48.0944C343.016 62.7233 302.868 79.4002 262.095 92.8588C229.889 103.912 196.395 106.988 163.329 101.929C152.222 100.173 141.069 99.1199 128.4 97.54Z" fill="#F8DB00"/>
<path d="M47.4387 196.613C49.7334 198.169 52.1559 199.295 54.6477 199.965C77.9328 202.863 101.371 198.138 123.216 186.139C125.413 184.7 127.509 182.956 129.472 180.932C139.457 171.236 141.239 155.735 131.793 145.021C123.171 135.312 113.44 127.858 103.039 122.996C74.8279 110.776 45.4825 104.902 16.0339 105.579C10.7502 106.143 5.50211 107.263 0.331406 108.931L0 114.497L20.7156 121.619C38.4482 127.605 56.2635 132.752 73.7889 139.575C79.6236 142.452 84.9244 147.223 89.2842 153.52C95.1675 161.241 93.966 170.458 86.4669 174.468C76.9792 179.496 66.9528 182.488 57.2164 186.439C53.7494 188.309 50.3602 190.467 47.0658 192.903L47.4387 196.613Z" fill="#F8DB00"/>
<path d="M414.527 235.701C414.527 238.596 413.865 240.928 412.541 242.697C411.217 244.467 409.424 245.352 407.162 245.352C404.854 245.352 403.037 244.619 401.713 243.154V252.312H398.461V225.98H401.432L401.59 228.09C402.914 226.449 404.754 225.629 407.109 225.629C409.395 225.629 411.199 226.49 412.523 228.213C413.859 229.936 414.527 232.332 414.527 235.402V235.701ZM411.275 235.332C411.275 233.188 410.818 231.494 409.904 230.252C408.99 229.01 407.736 228.389 406.143 228.389C404.174 228.389 402.697 229.262 401.713 231.008V240.096C402.686 241.83 404.174 242.697 406.178 242.697C407.736 242.697 408.973 242.082 409.887 240.852C410.812 239.609 411.275 237.77 411.275 235.332ZM430.418 245C430.23 244.625 430.078 243.957 429.961 242.996C428.449 244.566 426.645 245.352 424.547 245.352C422.672 245.352 421.131 244.824 419.924 243.77C418.729 242.703 418.131 241.355 418.131 239.727C418.131 237.746 418.881 236.211 420.381 235.121C421.893 234.02 424.014 233.469 426.744 233.469H429.908V231.975C429.908 230.838 429.568 229.936 428.889 229.268C428.209 228.588 427.207 228.248 425.883 228.248C424.723 228.248 423.75 228.541 422.965 229.127C422.18 229.713 421.787 230.422 421.787 231.254H418.518C418.518 230.305 418.852 229.391 419.52 228.512C420.199 227.621 421.113 226.918 422.262 226.402C423.422 225.887 424.693 225.629 426.076 225.629C428.268 225.629 429.984 226.18 431.227 227.281C432.469 228.371 433.113 229.877 433.16 231.799V240.553C433.16 242.299 433.383 243.688 433.828 244.719V245H430.418ZM425.021 242.521C426.041 242.521 427.008 242.258 427.922 241.73C428.836 241.203 429.498 240.518 429.908 239.674V235.771H427.359C423.375 235.771 421.383 236.938 421.383 239.27C421.383 240.289 421.723 241.086 422.402 241.66C423.082 242.234 423.955 242.521 425.021 242.521ZM437.484 235.332C437.484 232.367 438.17 230.012 439.541 228.266C440.912 226.508 442.729 225.629 444.99 225.629C447.311 225.629 449.121 226.449 450.422 228.09L450.58 225.98H453.551V244.543C453.551 247.004 452.818 248.943 451.354 250.361C449.9 251.779 447.943 252.488 445.482 252.488C444.111 252.488 442.77 252.195 441.457 251.609C440.145 251.023 439.143 250.221 438.451 249.201L440.139 247.25C441.533 248.973 443.238 249.834 445.254 249.834C446.836 249.834 448.066 249.389 448.945 248.498C449.836 247.607 450.281 246.354 450.281 244.736V243.102C448.98 244.602 447.205 245.352 444.955 245.352C442.729 245.352 440.924 244.455 439.541 242.662C438.17 240.869 437.484 238.426 437.484 235.332ZM440.754 235.701C440.754 237.846 441.193 239.533 442.072 240.764C442.951 241.982 444.182 242.592 445.764 242.592C447.814 242.592 449.32 241.66 450.281 239.797V231.113C449.285 229.297 447.791 228.389 445.799 228.389C444.217 228.389 442.98 229.004 442.09 230.234C441.199 231.465 440.754 233.287 440.754 235.701ZM466.365 245.352C463.787 245.352 461.689 244.508 460.072 242.82C458.455 241.121 457.646 238.854 457.646 236.018V235.42C457.646 233.533 458.004 231.852 458.719 230.375C459.445 228.887 460.453 227.727 461.742 226.895C463.043 226.051 464.449 225.629 465.961 225.629C468.434 225.629 470.355 226.443 471.727 228.072C473.098 229.701 473.783 232.033 473.783 235.068V236.422H460.898C460.945 238.297 461.49 239.814 462.533 240.975C463.588 242.123 464.924 242.697 466.541 242.697C467.689 242.697 468.662 242.463 469.459 241.994C470.256 241.525 470.953 240.904 471.551 240.131L473.537 241.678C471.943 244.127 469.553 245.352 466.365 245.352ZM465.961 228.301C464.648 228.301 463.547 228.781 462.656 229.742C461.766 230.691 461.215 232.027 461.004 233.75H470.531V233.504C470.438 231.852 469.992 230.574 469.195 229.672C468.398 228.758 467.32 228.301 465.961 228.301ZM489.568 225.98L489.674 228.371C491.127 226.543 493.025 225.629 495.369 225.629C499.389 225.629 501.416 227.896 501.451 232.432V245H498.199V232.414C498.188 231.043 497.871 230.029 497.25 229.373C496.641 228.717 495.686 228.389 494.385 228.389C493.33 228.389 492.404 228.67 491.607 229.232C490.811 229.795 490.189 230.533 489.744 231.447V245H486.492V225.98H489.568ZM505.494 235.314C505.494 233.451 505.857 231.775 506.584 230.287C507.322 228.799 508.342 227.65 509.643 226.842C510.955 226.033 512.449 225.629 514.125 225.629C516.715 225.629 518.807 226.525 520.4 228.318C522.006 230.111 522.809 232.496 522.809 235.473V235.701C522.809 237.553 522.451 239.217 521.736 240.693C521.033 242.158 520.02 243.301 518.695 244.121C517.383 244.941 515.871 245.352 514.16 245.352C511.582 245.352 509.49 244.455 507.885 242.662C506.291 240.869 505.494 238.496 505.494 235.543V235.314ZM508.764 235.701C508.764 237.811 509.25 239.504 510.223 240.781C511.207 242.059 512.52 242.697 514.16 242.697C515.812 242.697 517.125 242.053 518.098 240.764C519.07 239.463 519.557 237.646 519.557 235.314C519.557 233.229 519.059 231.541 518.062 230.252C517.078 228.951 515.766 228.301 514.125 228.301C512.52 228.301 511.225 228.939 510.24 230.217C509.256 231.494 508.764 233.322 508.764 235.701ZM531.299 221.375V225.98H534.85V228.494H531.299V240.289C531.299 241.051 531.457 241.625 531.773 242.012C532.09 242.387 532.629 242.574 533.391 242.574C533.766 242.574 534.281 242.504 534.938 242.363V245C534.082 245.234 533.25 245.352 532.441 245.352C530.988 245.352 529.893 244.912 529.154 244.033C528.416 243.154 528.047 241.906 528.047 240.289V228.494H524.584V225.98H528.047V221.375H531.299ZM549.193 245V228.494H546.188V225.98H549.193V224.029C549.193 221.99 549.738 220.414 550.828 219.301C551.918 218.188 553.459 217.631 555.451 217.631C556.201 217.631 556.945 217.73 557.684 217.93L557.508 220.566C556.957 220.461 556.371 220.408 555.75 220.408C554.695 220.408 553.881 220.719 553.307 221.34C552.732 221.949 552.445 222.828 552.445 223.977V225.98H556.506V228.494H552.445V245H549.193ZM559.248 235.314C559.248 233.451 559.611 231.775 560.338 230.287C561.076 228.799 562.096 227.65 563.396 226.842C564.709 226.033 566.203 225.629 567.879 225.629C570.469 225.629 572.561 226.525 574.154 228.318C575.76 230.111 576.562 232.496 576.562 235.473V235.701C576.562 237.553 576.205 239.217 575.49 240.693C574.787 242.158 573.773 243.301 572.449 244.121C571.137 244.941 569.625 245.352 567.914 245.352C565.336 245.352 563.244 244.455 561.639 242.662C560.045 240.869 559.248 238.496 559.248 235.543V235.314ZM562.518 235.701C562.518 237.811 563.004 239.504 563.977 240.781C564.961 242.059 566.273 242.697 567.914 242.697C569.566 242.697 570.879 242.053 571.852 240.764C572.824 239.463 573.311 237.646 573.311 235.314C573.311 233.229 572.812 231.541 571.816 230.252C570.832 228.951 569.52 228.301 567.879 228.301C566.273 228.301 564.979 228.939 563.994 230.217C563.01 231.494 562.518 233.322 562.518 235.701ZM592.383 243.119C591.117 244.607 589.26 245.352 586.811 245.352C584.783 245.352 583.236 244.766 582.17 243.594C581.115 242.41 580.582 240.664 580.57 238.355V225.98H583.822V238.268C583.822 241.15 584.994 242.592 587.338 242.592C589.822 242.592 591.475 241.666 592.295 239.814V225.98H595.547V245H592.453L592.383 243.119ZM603.58 225.98L603.686 228.371C605.139 226.543 607.037 225.629 609.381 225.629C613.4 225.629 615.428 227.896 615.463 232.432V245H612.211V232.414C612.199 231.043 611.883 230.029 611.262 229.373C610.652 228.717 609.697 228.389 608.396 228.389C607.342 228.389 606.416 228.67 605.619 229.232C604.822 229.795 604.201 230.533 603.756 231.447V245H600.504V225.98H603.58ZM619.576 235.332C619.576 232.414 620.268 230.07 621.65 228.301C623.033 226.52 624.844 225.629 627.082 225.629C629.309 225.629 631.072 226.391 632.373 227.914V218H635.625V245H632.637L632.479 242.961C631.178 244.555 629.367 245.352 627.047 245.352C624.844 245.352 623.045 244.449 621.65 242.645C620.268 240.84 619.576 238.484 619.576 235.578V235.332ZM622.828 235.701C622.828 237.857 623.273 239.545 624.164 240.764C625.055 241.982 626.285 242.592 627.855 242.592C629.918 242.592 631.424 241.666 632.373 239.814V231.078C631.4 229.285 629.906 228.389 627.891 228.389C626.297 228.389 625.055 229.004 624.164 230.234C623.273 231.465 622.828 233.287 622.828 235.701ZM640.582 250.098L638.736 248.832C639.838 247.297 640.412 245.715 640.459 244.086V241.15H643.641V243.699C643.641 244.883 643.348 246.066 642.762 247.25C642.188 248.434 641.461 249.383 640.582 250.098ZM664.734 233.592C661.84 232.76 659.73 231.74 658.406 230.533C657.094 229.314 656.438 227.814 656.438 226.033C656.438 224.018 657.24 222.354 658.846 221.041C660.463 219.717 662.561 219.055 665.139 219.055C666.896 219.055 668.461 219.395 669.832 220.074C671.215 220.754 672.281 221.691 673.031 222.887C673.793 224.082 674.174 225.389 674.174 226.807H670.781C670.781 225.26 670.289 224.047 669.305 223.168C668.32 222.277 666.932 221.832 665.139 221.832C663.475 221.832 662.174 222.201 661.236 222.939C660.311 223.666 659.848 224.68 659.848 225.98C659.848 227.023 660.287 227.908 661.166 228.635C662.057 229.35 663.562 230.006 665.684 230.604C667.816 231.201 669.48 231.863 670.676 232.59C671.883 233.305 672.773 234.143 673.348 235.104C673.934 236.064 674.227 237.195 674.227 238.496C674.227 240.57 673.418 242.234 671.801 243.488C670.184 244.73 668.021 245.352 665.314 245.352C663.557 245.352 661.916 245.018 660.393 244.35C658.869 243.67 657.691 242.744 656.859 241.572C656.039 240.4 655.629 239.07 655.629 237.582H659.021C659.021 239.129 659.59 240.354 660.727 241.256C661.875 242.146 663.404 242.592 665.314 242.592C667.096 242.592 668.461 242.229 669.41 241.502C670.359 240.775 670.834 239.785 670.834 238.531C670.834 237.277 670.395 236.311 669.516 235.631C668.637 234.939 667.043 234.26 664.734 233.592ZM698.256 233.029C698.256 235.537 697.834 237.729 696.99 239.604C696.146 241.467 694.951 242.891 693.404 243.875C691.857 244.859 690.053 245.352 687.99 245.352C685.975 245.352 684.188 244.859 682.629 243.875C681.07 242.879 679.857 241.467 678.99 239.639C678.135 237.799 677.695 235.672 677.672 233.258V231.412C677.672 228.951 678.1 226.777 678.955 224.891C679.811 223.004 681.018 221.562 682.576 220.566C684.146 219.559 685.939 219.055 687.955 219.055C690.006 219.055 691.811 219.553 693.369 220.549C694.939 221.533 696.146 222.969 696.99 224.855C697.834 226.73 698.256 228.916 698.256 231.412V233.029ZM694.898 231.377C694.898 228.342 694.289 226.016 693.07 224.398C691.852 222.77 690.146 221.955 687.955 221.955C685.822 221.955 684.141 222.77 682.91 224.398C681.691 226.016 681.064 228.266 681.029 231.148V233.029C681.029 235.971 681.645 238.285 682.875 239.973C684.117 241.648 685.822 242.486 687.99 242.486C690.17 242.486 691.857 241.695 693.053 240.113C694.248 238.52 694.863 236.24 694.898 233.275V231.377ZM712.705 234.646H706.693V245H703.301V219.406H711.773C714.656 219.406 716.871 220.062 718.418 221.375C719.977 222.688 720.756 224.598 720.756 227.105C720.756 228.699 720.322 230.088 719.455 231.271C718.6 232.455 717.404 233.34 715.869 233.926L721.881 244.789V245H718.26L712.705 234.646ZM706.693 231.887H711.879C713.555 231.887 714.885 231.453 715.869 230.586C716.865 229.719 717.363 228.559 717.363 227.105C717.363 225.523 716.889 224.311 715.939 223.467C715.002 222.623 713.643 222.195 711.861 222.184H706.693V231.887ZM734.889 234.646H728.877V245H725.484V219.406H733.957C736.84 219.406 739.055 220.062 740.602 221.375C742.16 222.688 742.939 224.598 742.939 227.105C742.939 228.699 742.506 230.088 741.639 231.271C740.783 232.455 739.588 233.34 738.053 233.926L744.064 244.789V245H740.443L734.889 234.646ZM728.877 231.887H734.062C735.738 231.887 737.068 231.453 738.053 230.586C739.049 229.719 739.547 228.559 739.547 227.105C739.547 225.523 739.072 224.311 738.123 223.467C737.186 222.623 735.826 222.195 734.045 222.184H728.877V231.887ZM754.646 232.256L761.326 219.406H765.158L756.334 235.455V245H752.959V235.455L744.135 219.406H748.002L754.646 232.256ZM771.592 237.775H768.656L768.428 219.406H771.838L771.592 237.775ZM768.305 243.365C768.305 242.838 768.463 242.398 768.779 242.047C769.107 241.684 769.588 241.502 770.221 241.502C770.854 241.502 771.334 241.684 771.662 242.047C771.99 242.398 772.154 242.838 772.154 243.365C772.154 243.893 771.99 244.332 771.662 244.684C771.334 245.023 770.854 245.193 770.221 245.193C769.588 245.193 769.107 245.023 768.779 244.684C768.463 244.332 768.305 243.893 768.305 243.365Z" fill="#FFFAFA"/>
</svg>
