<?xml version="1.0" encoding="utf-8"?>
<!-- Generator: Adobe Illustrator 22.1.0, SVG Export Plug-In . SVG Version: 6.00 Build 0)  -->
<svg version="1.1" id="Layer_1" xmlns="http://www.w3.org/2000/svg" xmlns:xlink="http://www.w3.org/1999/xlink" x="0px" y="0px"
	 viewBox="0 0 149.3 81.3" style="enable-background:new 0 0 149.3 81.3;" xml:space="preserve">
<path d="M100.6,54.1c-0.1-1,0.5-1.8,0.4-2.5c-0.2-1-0.9-1-1.9-1.5c2.5-2.3,0.4-3.1-0.3-5.6c1.1-0.9,2.9-2.6,2.2-4.4
	c-0.3-0.7-1.6-1-2.4-1.5c-1.6-1-3.1-2.2-4.4-3.6c0-1.9-0.3-3.8-0.9-5.7c-3.5-12.1-16.5-18.9-29-15.2S44.5,30.4,48,42.5
	c1.4,4.8,4.4,9,8.5,11.9c4.2,7.7,6.9,19.5-2.7,26.9h24.9c1.9-5.5,4.1-11.6,4.6-12.9c0.6-1.5,2.1-4.3,3.5-4.8c1.3-0.5,2.7-0.9,4-1.1
	c4.6-0.4,9.6-0.9,10.3-4.3C101.6,56.4,100.7,55.3,100.6,54.1z"/>
<path d="M78.7,13.6c0-0.1,0.1-0.1,0.1-0.2c0.4,0.1,0.8,0.1,1.2,0c1.4-0.4,2.7-1.8,4.8-0.7c0.1,0.1,0.3,0.2,0.5,0.3
	c0.3,0.1,0.6,0,1,0.1c0.5,0.2,1,0.4,1.4,0.8c0.2,0.2,0.5,0.4,0.5,0.7c-0.2,0-0.3-0.3-0.6-0.4c-0.7-0.6-1.6-0.9-2.5-0.6
	c-0.7,0.4-1.4,0.9-2.1,1.5l2.4,0.9c0.8,0.2,1.6,0.6,2.4,0.9c1,0.8,1.1,2.2,0.4,3.2l-0.1,0.1c-0.4,0.3-1,0.2-1.4-0.1
	c-0.9-0.9-0.8-2.3,0-3.2C84.1,15.8,81.4,14.7,78.7,13.6C78.7,13.7,78.7,13.7,78.7,13.6z M84.9,13.1c-1.9-0.8-2.9,0.2-4.1,1
	C82.5,14.6,83.5,13.5,84.9,13.1z M41.7,26.4h0.2c0,0.4,0.1,0.8,0.3,1.2c0.7,1.3,2.4,2.2,1.8,4.5c-0.1,0.2-0.1,0.3-0.2,0.5
	c0,0.3,0.2,0.6,0.2,0.9c0,0.6-0.2,1.1-0.4,1.6c-0.1,0.2-0.3,0.6-0.6,0.6c0.1-0.2,0.2-0.5,0.3-0.7c0.5-0.8,0.5-1.8,0-2.6
	c-0.6-0.6-1.2-1.2-1.9-1.7l-0.3,2.5c0,0.9-0.2,1.7-0.3,2.5c-0.5,1.1-1.9,1.6-3,1.1h-0.1c-0.4-0.3-0.5-0.9-0.2-1.3
	c0.7-1,2.1-1.4,3.1-0.7C41,32.1,41.3,29.3,41.7,26.4z M43.7,32.2c0.4-2-0.9-2.8-2-3.7C41.7,30.3,43,31,43.7,32.2z M68,8.8h0.2
	c0,0.4,0.1,0.8,0.3,1.2c0.7,1.3,2.4,2.2,1.8,4.5c-0.1,0.2-0.1,0.3-0.2,0.5c0,0.3,0.2,0.6,0.1,0.9c0,0.6-0.2,1.1-0.4,1.6
	c-0.1,0.2-0.3,0.6-0.6,0.6c0.1-0.2,0.2-0.5,0.3-0.7c0.5-0.8,0.5-1.8,0-2.6c-0.6-0.6-1.2-1.2-1.9-1.7l-0.3,2.5c0,0.9-0.2,1.7-0.3,2.5
	c-0.5,1.1-1.9,1.6-3,1.1h-0.1c-0.4-0.3-0.5-0.9-0.2-1.3c0.7-1,2.1-1.4,3.1-0.7C67.3,14.5,67.6,11.7,68,8.8z M70,14.6
	c0.4-2-0.9-2.8-2-3.7C68,12.7,69.3,13.4,70,14.6z M50.4,48.4c-0.1,0-0.1,0.1-0.2,0.1c-0.3-0.3-0.6-0.6-0.9-0.8
	C48,47.1,46,47.3,45.2,45c0-0.2-0.1-0.4-0.1-0.5c-0.1-0.2-0.5-0.4-0.7-0.7c-0.3-0.5-0.5-1-0.6-1.6c0-0.3-0.1-0.7,0.1-0.8
	c0.1,0.2,0.1,0.5,0.1,0.7c0.1,0.9,0.6,1.7,1.4,2.1c0.8,0.2,1.7,0.3,2.5,0.3l-1.2-2.3c-0.4-0.7-0.8-1.5-1.2-2.3
	c-0.2-1.2,0.6-2.4,1.9-2.6h0.1c0.5,0.1,0.9,0.5,0.9,1c0,1.2-0.9,2.3-2.2,2.4C47.8,43.2,49.1,45.7,50.4,48.4
	C50.4,48.3,50.4,48.3,50.4,48.4z M45.4,44.6c0.9,1.9,2.3,1.8,3.8,2C48.2,45.1,46.7,45.3,45.4,44.6z M15.1,45.6
	c-0.1,0.1-0.1,0.2-0.2,0.3c-0.6-0.2-1.3-0.3-1.9-0.3C10.8,46,8.4,48,5.4,45.8c-0.2-0.2-0.4-0.4-0.7-0.6c-0.4-0.2-1-0.1-1.5-0.3
	c-0.8-0.3-1.5-0.8-2.1-1.5c-0.3-0.3-0.7-0.7-0.6-1.2C0.8,42.3,1,42.7,1.3,43c0.9,1.1,2.3,1.7,3.8,1.5c1.3-0.3,2.4-1.4,3.5-1.9
	l-3.5-1.9c-1.2-0.5-2.4-1.2-3.5-1.9c-1.3-1-1.5-4.1,0.1-5.1c0.7-0.4,1.6-0.2,2.1,0.4c1,1.2,1.1,3.9-0.6,5c3.9,2.1,7.9,4.2,11.8,6.2
	C15,45.5,15.1,45.5,15.1,45.6z M5.4,45.3c2.8,1.6,4.6,0.2,6.6-0.8C9.4,43.4,7.6,45,5.4,45.3z M49.8,12L49.8,12
	c0.2,0.2,0.4,0.5,0.5,0.7c0.7,0.6,2,0.8,2.2,2.3v0.4c0,0.2,0.2,0.3,0.3,0.5c0.1,0.3,0.2,0.7,0.1,1.1c0,0.2,0,0.4-0.2,0.5V17
	c0.1-0.6-0.1-1.2-0.6-1.6c-0.5-0.2-1-0.4-1.6-0.6c0.1,0.5,0.3,1.1,0.4,1.6c0.2,0.5,0.3,1.1,0.4,1.6c-0.1,0.8-0.8,1.4-1.6,1.4h-0.1
	c-0.3-0.1-0.5-0.4-0.4-0.8c0.2-0.8,0.9-1.3,1.7-1.2C50.7,15.7,50.2,13.9,49.8,12z M52.4,15.1c-0.3-1.3-1.2-1.5-2.1-1.8
	C50.7,14.4,51.7,14.5,52.4,15.1z M46.9,50.5v0.3c-0.5,0.1-1,0.4-1.4,0.6c-1.4,1.2-2.1,3.7-5.2,3.5c-0.2-0.1-0.5-0.1-0.7-0.1
	c-0.3,0-0.7,0.4-1.2,0.4c-0.7,0.1-1.4,0.1-2.1-0.1c-0.3-0.1-0.8-0.2-0.9-0.5c0.3,0,0.6,0.1,0.9,0.2c1.1,0.4,2.3,0.1,3.2-0.6
	c0.6-0.9,1.2-1.9,1.6-2.9l-3.3,0.3c-1.1,0.2-2.2,0.3-3.3,0.3c-1.3-0.1-2.8-2.2-2.2-3.6c0.3-0.6,1-0.8,1.6-0.6
	c1.2,0.4,2.5,2.3,1.8,3.7l10.9-0.9C46.6,50.5,46.9,50.5,46.9,50.5z M40.1,54.5c2.6-0.1,3.3-1.9,4.2-3.5C42,51.5,41.4,53.4,40.1,54.5
	z"/>
<path d="M45.1,24.6c0,0.1,0,0.1,0.1,0.2c-0.3,0.2-0.6,0.4-0.9,0.7c-0.7,1.1-0.7,2.9-2.8,3.4c-0.2,0-0.3,0-0.5,0.1s-0.4,0.4-0.7,0.5
	c-0.5,0.2-1,0.4-1.5,0.4c-0.2,0-0.6,0-0.7-0.2c0.2-0.1,0.4-0.1,0.7,0c0.8,0,1.6-0.4,2.1-1.1c0.2-0.7,0.4-1.5,0.5-2.3l-2.2,0.9
	c-0.7,0.3-1.4,0.6-2.2,0.9c-1.1,0.1-2.1-0.8-2.2-1.9v-0.1c0.1-0.5,0.5-0.8,1-0.8c1.1,0.1,2,1.1,2,2.2C37.8,27.5,45.1,24.6,45.1,24.6
	z M41.3,28.8c1.8-0.6,1.9-2,2.1-3.2C42,26.3,42,27.7,41.3,28.8z M0.6,29.2c0-0.1,0.1-0.1,0.2-0.2c0.4,0.2,0.9,0.4,1.4,0.5
	c1.7,0,3.8-1.2,5.8,0.9c0.1,0.1,0.2,0.4,0.4,0.5c0.3,0.2,0.7,0.2,1.1,0.4c0.6,0.4,1,0.8,1.4,1.4c0.2,0.3,0.4,0.7,0.3,1
	c-0.2-0.1-0.3-0.4-0.5-0.7c-0.5-1-1.6-1.6-2.7-1.6c-1,0.2-2,0.6-2.9,1c0.8,0.6,1.6,1.3,2.4,1.9c0.9,0.6,1.7,1.2,2.4,1.9
	c0.9,0.9,0.6,3.3-0.8,3.9c-0.6,0.2-1.2-0.1-1.5-0.6c-0.6-1-0.3-3.1,1.1-3.7C6.1,33.5,3.4,31.4,0.6,29.2C0.7,29.3,0.6,29.2,0.6,29.2z
	 M7.9,30.8C6,29.2,4.4,30,2.8,30.6C4.7,31.6,6.2,30.7,7.9,30.8z"/>
<path d="M45.2,17.7h0.2c0.2,0.4,0.4,0.7,0.6,1c1,0.9,2.9,1.1,3.1,3.3v0.5c0.1,0.2,0.3,0.5,0.4,0.8c0.2,0.5,0.2,1,0.2,1.5
	c0,0.3-0.1,0.6-0.3,0.7v-0.7c0.1-0.8-0.2-1.7-0.8-2.3c-0.7-0.3-1.5-0.6-2.2-0.8L47,24l0.6,2.3c-0.1,1.2-1.1,2.1-2.3,2h-0.1
	c-0.5-0.2-0.7-0.6-0.6-1.1c0.2-1.1,1.4-1.9,2.5-1.7C46.4,23,45.8,20.4,45.2,17.7z M48.9,22.2c-0.4-1.9-1.7-2.2-3-2.6
	C46.5,21.1,47.9,21.3,48.9,22.2z M79.2,7.1l0.2,0.1v1c0.4,1.1,1.7,2.2,0.9,4c-0.1,0.1-0.2,0.3-0.2,0.4c-0.1,0.2,0,0.5,0,0.8
	c-0.1,0.5-0.3,0.9-0.6,1.3c-0.1,0.2-0.3,0.5-0.5,0.4c0-0.1,0.2-0.3,0.3-0.5c0.5-0.6,0.6-1.4,0.4-2.1c-0.4-0.6-0.9-1.1-1.3-1.7
	l-0.6,2.1L77.2,15c-0.6,0.9-1.8,1.1-2.6,0.5h-0.1c-0.3-0.3-0.3-0.8,0-1.1c0.7-0.8,1.9-0.8,2.7-0.2C77.8,11.7,78.5,9.4,79.2,7.1z
	 M80.1,12.2c0.6-1.6-0.3-2.5-1.1-3.4C78.7,10.3,79.7,11.1,80.1,12.2z M31.4,25.9c0.1,0,0.2-0.1,0.4-0.1c0.3,0.7,0.7,1.3,1.2,1.8
	c1.9,1.6,5.3,2.1,5.7,6.2v1c0.1,0.4,0.6,0.9,0.8,1.4c0.3,0.9,0.4,1.9,0.3,2.8c-0.1,0.5-0.1,1.1-0.5,1.3c0-0.4,0-0.8,0.1-1.2
	c0.1-1.5-0.2-3.3-1.5-4.2c-1.2-0.8-2.9-1-4.1-1.6c0.3,1.4,0.7,2.8,1,4.3c0.4,1.4,0.8,2.8,1,4.3c0.2,1.8-2.3,4.2-4.3,3.6
	c-0.8-0.3-1.3-1.2-1.2-2.1c0.2-1.7,2.5-3.8,4.6-3.1C33.8,35.5,32.6,30.7,31.4,25.9C31.4,26,31.4,25.9,31.4,25.9z M38.2,34.2
	c-0.7-3.5-3.2-4-5.5-4.8C33.8,32.3,36.4,32.6,38.2,34.2z M26,51.2c0-0.1,0-0.1,0.1-0.2c0.3,0.1,0.7,0.1,1,0.1c1.2-0.3,2.4-1.4,4-0.4
	c0.1,0.1,0.2,0.2,0.4,0.3s0.5,0,0.8,0.1c0.4,0.2,0.8,0.4,1.2,0.7c0.2,0.2,0.4,0.4,0.4,0.6c-0.1,0-0.3-0.2-0.5-0.4
	c-0.5-0.6-1.3-0.8-2.1-0.7c-0.6,0.3-1.2,0.7-1.8,1.1c0.7,0.3,1.3,0.6,2,0.9c0.7,0.2,1.3,0.5,2,0.9c0.8,0.7,0.8,1.9,0.1,2.7
	c-0.4,0.2-0.8,0.2-1.1-0.2c-0.7-0.8-0.6-2,0.2-2.7C30.4,53.2,28.2,52.2,26,51.2C26,51.2,25.9,51.2,26,51.2z M31.1,51
	c-1.5-0.8-2.5,0-3.5,0.7C29.1,52.1,30,51.3,31.1,51z M52,52.6c0,0.3,0,0.5-0.1,0.8c0.1,0.8,0.7,1.8-0.2,2.8
	c-0.1,0.1-0.2,0.1-0.2,0.2c-0.1,0.1-0.1,0.4-0.2,0.5c-0.2,0.3-0.4,0.5-0.6,0.7c-0.1,0.1-0.3,0.2-0.5,0.2c0-0.1,0.2-0.2,0.3-0.3
	c0.4-0.3,0.7-0.8,0.7-1.4c-0.2-0.5-0.4-0.9-0.6-1.4c-0.3,0.4-0.5,0.8-0.8,1.3c-0.2,0.4-0.5,0.9-0.8,1.3c-0.6,0.5-1.4,0.4-1.9-0.2
	c-0.1-0.3,0-0.6,0.2-0.8c0.6-0.4,1.4-0.2,1.8,0.4C50.2,55.4,51.1,54,52,52.6z M51.6,56.2c0.7-1,0.2-1.7-0.1-2.5
	C51,54.6,51.5,55.3,51.6,56.2z M59.4,10.4c0,0.3,0,0.5-0.1,0.8C59.4,12,60,13,59.1,14c-0.1,0.1-0.2,0.1-0.2,0.2
	c-0.1,0.1-0.1,0.4-0.2,0.5c-0.2,0.3-0.4,0.5-0.6,0.7c-0.1,0.1-0.3,0.2-0.5,0.2c0-0.1,0.2-0.2,0.3-0.3c0.4-0.3,0.7-0.8,0.7-1.4
	c-0.2-0.5-0.4-0.9-0.6-1.4L57.3,14c-0.2,0.4-0.5,0.9-0.8,1.3c-0.6,0.5-1.4,0.4-1.9-0.2c-0.1-0.3,0-0.6,0.2-0.8
	c0.6-0.4,1.4-0.2,1.8,0.4C57.5,13.2,58.4,11.8,59.4,10.4L59.4,10.4z M58.9,14c0.7-1,0.2-1.7-0.1-2.5C58.4,12.5,58.9,13.2,58.9,14z
	 M15.7,46.1l0.2,0.2l-4.4,4.1c-0.7,0.6-1.3,1.4-2,1.4c-0.8,0-1.6-0.4-2.1-1.1c-0.2-0.3-0.3-0.7-0.1-1.1c0.7-0.9,2.9,0,3.2,1.2
	L15.7,46.1C15.7,46.2,15.7,46.1,15.7,46.1z M65.1,40.9c-0.1,0.2-0.1,0.4-0.2,0.6c-4.2-1.4-8.8-2.8-13.3-4.3
	c-2.1-0.7-4.4-1.1-5.1-2.4c-0.9-1.7-0.9-3.7-0.2-5.4c0.3-0.7,1.2-1.5,2-1.4c2.6,0.3,3.3,5.8,1.1,7.8c5.2,1.7,10.3,3.3,15.5,5
	C65,40.8,65.1,40.8,65.1,40.9z M64.6,37.8c-0.2,0.1-0.3,0.3-0.5,0.4c-2.9-3.4-6-7-9.1-10.6c-1.4-1.6-3.2-3.2-3.1-4.7
	c0.1-1.9,1.1-3.6,2.7-4.7c0.7-0.5,1.7-0.6,2.5-0.2c2.1,1.7-0.3,6.7-3.2,7.2l10.6,12.4C64.6,37.7,64.7,37.8,64.6,37.8z"/>
<path d="M53.1,51h0.3v6c0,0.9,0.1,1.9-0.3,2.4c-0.6,0.6-1.4,0.9-2.2,0.8c-0.3,0-0.8-0.3-0.8-0.6c-0.2-1.1,1.9-2.1,3-1.5V51
	C53.1,51.1,53.1,51,53.1,51z M35.9,47.1h0.2v3.6c0,0.6,0.1,1.2-0.2,1.5s-0.8,0.5-1.3,0.5c-0.2,0-0.5-0.2-0.5-0.4
	c-0.1-0.7,1.2-1.3,1.8-0.9C35.9,51.4,35.9,47.1,35.9,47.1z M15.7,37.3c0-0.1,0-0.2-0.1-0.3l6.2-1.5c1-0.2,2-0.6,2.6-0.3
	c0.7,0.5,1.2,1.2,1.4,2.1c0.1,0.4-0.1,0.8-0.4,1c-1.1,0.5-2.7-1.5-2.3-2.8C20.6,36.2,18.2,36.7,15.7,37.3
	C15.8,37.3,15.7,37.4,15.7,37.3z M26.4,37.9l0.4,0.1c-0.5,2.8-1,5.7-1.5,8.7c-0.2,1.3-0.3,2.8-1,3.4c-1,0.7-2.2,0.9-3.4,0.6
	c-0.4-0.1-1.1-0.6-1.1-1.1c0-1.7,3.3-2.6,4.8-1.4c0.6-3.4,1.1-6.7,1.7-10.1C26.4,38,26.4,37.9,26.4,37.9z M51.7,16.5H52
	c-0.3,2-0.7,4.3-1.1,6.4c-0.2,1-0.2,2.1-0.8,2.5c-0.6,0.6-1.5,0.8-2.4,0.6c-0.3-0.1-0.8-0.5-0.8-0.8c0-1.2,2.5-1.9,3.5-1
	C50.9,21.6,51.3,19.1,51.7,16.5C51.7,16.6,51.7,16.5,51.7,16.5z M67,49.6l0.3,0.3l-6.6,5.8c-1,0.9-2,2-2.9,2c-1.2-0.1-2.3-0.7-3-1.7
	c-0.3-0.5-0.4-1.1-0.1-1.6c1-1.3,4.2,0.1,4.6,1.9L67,49.6L67,49.6z M47.4,52.7l0.2,0.2c-1.2,1.1-2.5,2.2-3.8,3.4
	c-0.6,0.5-1.2,1.2-1.7,1.2c-0.7,0-1.3-0.4-1.7-1c-0.2-0.3-0.2-0.6-0.1-0.9c0.6-0.8,2.4,0.1,2.7,1.1C43,56.7,47.4,52.7,47.4,52.7z
	 M46.1,34l0.2,0.2c-1.2,1.1-2.5,2.2-3.8,3.4c-0.6,0.5-1.2,1.2-1.7,1.2c-0.7,0-1.3-0.4-1.7-1c-0.2-0.3-0.2-0.6-0.1-0.9
	c0.6-0.8,2.4,0.1,2.7,1.1L46.1,34C46,34,46,34,46.1,34z M27.6,43.9h-0.3c0.4-2.4,0.7-5,1.1-7.6c0.2-1.2,0.2-2.5,0.8-3
	c0.8-0.6,1.9-0.8,2.9-0.6c0.4,0.1,0.9,0.5,1,1c0.1,1.5-2.9,2.3-4.2,1.3C28.5,37.9,28,40.9,27.6,43.9z"/>
<path d="M61.3,59.2l-0.6,0.9c-0.4,0.6-0.8,1.2-1.3,1.8c-0.2,0.3-0.4,0.6-0.7,0.9c-0.5,0.3-1.1,0.2-1.5-0.2C57,62.5,57,62.3,57,62.1
	c0.3-0.6,1.5-0.3,1.8,0.3l2-2.7c-1.1-0.6-2.2-1.2-3.4-1.7c-0.6,0.8-1.1,1.6-1.7,2.4c-0.2,0.3-0.4,0.5-0.6,0.8
	c-0.5,0.2-1.1,0.1-1.5-0.2c-0.2-0.1-0.2-0.4-0.2-0.6c0.3-0.5,1.5-0.3,1.8,0.3l2.3-3.2C58.8,58,60.1,58.6,61.3,59.2L61.3,59.2z"/>
<path d="M54,58.7c0.3-0.4,0.6-0.9,1-1.2l2.1-2.4c0.3-0.4,0.7-0.8,1-1.2c0.7-0.3,1.6-0.1,2.1,0.5c0.2,0.2,0.3,0.5,0.2,0.8
	c-0.4,0.8-2.3,0.3-2.6-0.6l-3.2,3.7c1.5,1,3.1,1.9,4.6,2.9L62,58c0.3-0.4,0.6-0.7,0.9-1c0.7-0.3,1.6-0.1,2.1,0.5
	c0.2,0.2,0.3,0.6,0.1,0.9c-0.5,0.7-2.1,0.2-2.5-0.7L59,61.9C57.3,60.8,55.7,59.7,54,58.7z M38,39.3c0.1,0.7,0.1,1.3,0.1,2v4
	c0.1,0.7,0,1.3,0,2c-0.4,0.9-1.4,1.4-2.4,1.3c-0.4,0-0.8-0.2-0.9-0.6c-0.3-1.2,1.9-2.2,3-1.6v-6.2c-2.3,0.3-4.5,0.7-6.8,1v5.4
	c0.1,0.6,0,1.2,0,1.7c-0.5,0.9-1.4,1.4-2.4,1.2c-0.4,0-0.8-0.3-0.9-0.7c-0.1-1.1,1.9-2,3-1.4v-7.1C33.1,40,35.6,39.7,38,39.3z
	 M77.3,12.6c-0.3,0.1-0.6,0.2-1,0.3l-1.9,0.5c-0.3,0.1-0.6,0.2-1,0.2c-0.5-0.1-0.9-0.5-0.9-1c0-0.2,0-0.4,0.2-0.5
	c0.5-0.3,1.3,0.6,1.1,1.2l3-0.8c-0.5-1.1-0.9-2.1-1.4-3.2L72.8,10c-0.3,0.1-0.6,0.2-0.8,0.2c-0.5-0.1-0.8-0.5-0.9-1
	c0-0.2,0.1-0.4,0.2-0.5c0.5-0.2,1.2,0.7,1.1,1.3l3.4-0.9C76.3,10.3,76.8,11.4,77.3,12.6L77.3,12.6z M30.7,39.9
	c-0.8,0.3-1.6,0.6-2.4,0.7c-1.6,0.4-3.2,0.9-4.9,1.3c-0.8,0.3-1.6,0.5-2.4,0.6c-1.2-0.2-2.2-1.2-2.3-2.5c-0.1-0.5,0.1-0.9,0.4-1.2
	c1.3-0.7,3.2,1.6,2.9,3.1l7.4-2c-1.1-2.7-2.3-5.2-3.5-7.9l-6.4,1.8c-0.7,0.3-1.4,0.4-2.1,0.5c-1.2-0.3-2.1-1.3-2.3-2.5
	c-0.1-0.5,0.1-1,0.6-1.3c1.3-0.5,3,1.6,2.7,3.2c2.8-0.8,5.7-1.6,8.5-2.3C28.2,34.2,29.5,37.1,30.7,39.9z M42.7,51.7
	c0.3-0.4,0.7-0.8,1.2-1.2l2.4-2.3c0.4-0.4,0.8-0.8,1.2-1.1c0.8-0.3,1.6,0,2.1,0.7c0.2,0.2,0.3,0.6,0.1,0.9c-0.5,0.8-2.4,0.1-2.6-0.9
	c-1.2,1.2-2.4,2.3-3.7,3.5c1.5,1.2,3,2.3,4.5,3.5c1.1-1.1,2.1-2,3.2-3.1c0.3-0.4,0.7-0.7,1.1-1c0.8-0.2,1.6,0.1,2.1,0.8
	c0.2,0.3,0.3,0.6,0.1,0.9c-0.6,0.7-2.3,0-2.6-1c-1.4,1.4-2.8,2.7-4.2,4.1C45.9,54.2,44.3,53,42.7,51.7z M11.2,41.8
	c0.2-0.3,0.5-0.5,0.7-0.8l1.5-1.5c0.2-0.3,0.5-0.5,0.8-0.7c0.5-0.2,1.1,0,1.4,0.5c0.1,0.1,0.2,0.4,0.1,0.5c-0.3,0.5-1.5,0.1-1.7-0.6
	c-0.8,0.8-1.6,1.5-2.4,2.3c1,0.8,1.9,1.5,2.9,2.2l2.1-2c0.2-0.2,0.4-0.4,0.7-0.6c0.5-0.1,1.1,0.1,1.4,0.5c0.1,0.2,0.2,0.4,0,0.6
	c-0.4,0.5-1.4,0-1.7-0.6l-2.7,2.6C13.3,43.4,12.2,42.6,11.2,41.8z M18.9,51c0.3,0,0.5,0.1,0.8,0.2l1.5,0.4c0.3,0,0.5,0.1,0.8,0.2
	c0.3,0.3,0.4,0.7,0.2,1.1c-0.1,0.1-0.2,0.3-0.3,0.3c-0.5,0-0.6-1-0.3-1.3l-2.4-0.6L18.9,54l2.1,0.6c0.2,0,0.5,0.1,0.7,0.2
	c0.3,0.3,0.4,0.7,0.2,1.1c0,0-0.2,0.1-0.4,0.1c-0.4-0.1-0.6-0.9-0.2-1.3L18.6,54C18.6,54,18.9,51,18.9,51z M48.5,23.4
	c0.2-0.3,0.5-0.5,0.7-0.8l1.5-1.5c0.2-0.3,0.5-0.5,0.8-0.7c0.5-0.2,1.1,0,1.4,0.5c0.1,0.2,0.2,0.4,0.1,0.5c-0.3,0.5-1.5,0.1-1.7-0.6
	l-2.4,2.3c1,0.8,1.9,1.5,2.9,2.2c0.7-0.7,1.3-1.3,2.1-2c0.2-0.2,0.4-0.4,0.7-0.6c0.5-0.1,1.1,0.1,1.4,0.5c0.1,0.2,0.2,0.4,0,0.6
	c-0.4,0.5-1.4,0-1.7-0.6l-2.7,2.6C50.6,24.9,49.5,24.1,48.5,23.4z"/>
<path d="M57.3,60.8L57.3,60.8c-0.2,0.3-0.4,0.6-0.6,0.9c-0.4,0.8-0.3,1.8-1.4,2.3c-0.4,0.2-0.8,0.3-1.3,0.3c-0.1,0-0.3,0-0.4-0.1
	c0.1-0.1,0.2-0.1,0.3-0.1c0.5,0,1-0.2,1.4-0.4c0.6-0.4,0.8-1.2,0.6-1.9c-0.5,0.2-1,0.6-1.6,0.9c-0.5,0.3-1.1,0.7-1.6,1
	c-0.5,0.1-1.1,0-1.4-0.5c-0.3-0.4-0.4-0.9,0.1-1.1c0.7-0.2,1.4,0.2,1.6,0.9v0.2L57.3,60.8C57.3,60.8,57.3,60.7,57.3,60.8z
	 M13.4,33.4h0.1c0.1,0.3,0.2,0.6,0.4,0.9c0.6,0.7,1.5,0.9,1.6,2.2c0,0.4-0.1,0.9-0.2,1.3c0,0.1-0.1,0.3-0.2,0.3
	c-0.1-0.1,0-0.2,0.1-0.3c0.2-0.5,0.2-1,0.1-1.4c-0.2-0.7-0.8-1.2-1.5-1.3c0,0.5,0.1,1.2,0.2,1.9c0.1,0.6,0.2,1.2,0.2,1.9
	c-0.1,0.5-0.5,0.9-1,1.1c-0.5,0.1-0.9,0-0.9-0.5c0.1-0.7,0.8-1.2,1.5-1.1H14C14,38.4,13.4,33.4,13.4,33.4z M31.8,31.2L31.8,31.2
	c0.2,0.3,0.3,0.6,0.5,0.9c0.6,0.7,1.5,0.9,1.6,2.2c0,0.4-0.1,0.9-0.2,1.3c0,0.1-0.1,0.3-0.2,0.3c-0.1-0.1,0-0.2,0.1-0.3
	c0.2-0.5,0.2-1,0.1-1.4c-0.2-0.7-0.8-1.2-1.5-1.3c0,0.5,0.1,1.2,0.2,1.9c0.1,0.6,0.2,1.2,0.2,1.9c-0.1,0.5-0.5,0.9-1,1.1
	c-0.5,0.1-0.9,0-0.9-0.5c0.1-0.7,0.8-1.2,1.5-1.1h0.2C32.4,36.2,31.8,31.2,31.8,31.2z M45.4,51.9L45.4,51.9c0.2,0.3,0.3,0.6,0.5,0.9
	c0.6,0.8,1.6,1,1.6,2.2c0,0.4-0.1,0.9-0.2,1.3c0,0.1-0.1,0.3-0.2,0.3c-0.1-0.1,0-0.2,0.1-0.3c0.2-0.5,0.2-1,0.1-1.4
	c-0.2-0.7-0.8-1.2-1.5-1.3c0,0.5,0.1,1.2,0.2,1.9c0.1,0.6,0.2,1.2,0.2,1.9c-0.1,0.5-0.5,0.9-1,1.1c-0.5,0.1-0.9,0-0.9-0.5
	c0.1-0.7,0.8-1.2,1.5-1.1H46L45.4,51.9C45.4,52,45.4,51.9,45.4,51.9z M53.2,43.5h0.2c0.2,0.6,0.5,1.2,0.8,1.7c1,1.3,2.8,1.7,2.9,4
	c0,0.8-0.1,1.6-0.4,2.4c-0.1,0.2-0.2,0.5-0.4,0.6c-0.1-0.2,0-0.4,0.1-0.5c0.3-0.8,0.4-1.7,0.3-2.6c-0.3-1.3-1.4-2.3-2.8-2.3
	c0,1,0.2,2.2,0.4,3.4c0.2,1.1,0.3,2.3,0.4,3.4c-0.1,1-0.8,1.7-1.8,2c-0.8,0.2-1.7,0-1.7-1c0.2-1.3,1.4-2.2,2.7-2
	c0.1,0,0.2,0,0.4,0.1c-0.4-3-0.7-6-1.1-9C53.1,43.6,53.1,43.5,53.2,43.5z M60.3,52.5h0.2c0.2,0.6,0.4,1.2,0.8,1.7
	c1,1.3,2.8,1.7,2.9,4c0,0.8-0.1,1.6-0.4,2.4c-0.1,0.2-0.2,0.5-0.4,0.6c-0.1-0.2,0-0.4,0.1-0.5c0.3-0.8,0.4-1.7,0.3-2.6
	c-0.3-1.3-1.4-2.3-2.8-2.3c0,1,0.2,2.2,0.4,3.4c0.2,1.1,0.3,2.3,0.4,3.4c-0.1,1-0.8,1.7-1.8,2c-0.8,0.2-1.7,0-1.7-1
	c0.2-1.3,1.4-2.2,2.7-2c0.1,0,0.2,0,0.4,0.1c-0.4-3-0.7-6-1.1-9C60.2,52.5,60.2,52.5,60.3,52.5z M37.5,24.3v-0.1
	c0.3-0.1,0.6-0.3,0.9-0.6c0.6-0.7,0.7-1.6,2-1.9c0.4-0.1,0.9,0,1.3,0c0.1,0,0.3,0,0.3,0.2c-0.1,0.1-0.2,0-0.3,0
	c-0.5-0.1-1-0.1-1.4,0.1c-0.7,0.3-1.1,0.9-1.1,1.7c0.5-0.1,1.2-0.3,1.8-0.5s1.2-0.4,1.8-0.5c0.5,0,1,0.3,1.2,0.8
	c0.2,0.4,0.1,0.9-0.4,1c-0.7,0-1.3-0.6-1.3-1.3V23L37.5,24.3C37.5,24.4,37.5,24.4,37.5,24.3z M45,25.8h0.2c0.1,0.5,0.2,0.9,0.4,1.3
	c0.6,1,1.9,1.5,1.8,3.2c-0.1,0.6-0.2,1.2-0.5,1.7c-0.1,0.1-0.2,0.4-0.3,0.4c-0.1-0.1,0.1-0.2,0.1-0.4c0.3-0.6,0.5-1.2,0.4-1.9
	c-0.1-1-0.8-1.8-1.8-1.9c-0.1,0.7,0,1.6,0,2.5v2.5c-0.2,0.7-0.8,1.2-1.5,1.3c-0.6,0.1-1.3-0.2-1.2-0.9c0.2-0.9,1.2-1.5,2.1-1.2
	c0.1,0,0.2,0.1,0.3,0.1V25.8C44.9,25.9,44.9,25.8,45,25.8z M18,42.7h0.2c0.1,0.5,0.2,0.9,0.4,1.3c0.6,1,1.9,1.5,1.8,3.1
	c-0.1,0.6-0.2,1.1-0.5,1.7c-0.1,0.1-0.2,0.4-0.3,0.4c-0.1-0.1,0.1-0.2,0.1-0.4c0.3-0.6,0.5-1.2,0.4-1.9c-0.1-1-0.8-1.8-1.8-1.9v5
	c-0.2,0.7-0.8,1.2-1.4,1.3s-1.2-0.2-1.2-0.9c0.2-0.9,1.2-1.5,2.1-1.2c0.1,0,0.2,0.1,0.2,0.1S18,42.7,18,42.7z M30,39.3L30,39.3
	c-0.1,0.5-0.2,1-0.3,1.4c0,1.2,0.7,2.3-0.3,3.6c-0.4,0.5-0.8,0.8-1.3,1.1c-0.1,0.1-0.3,0.2-0.5,0.1c0-0.1,0.2-0.2,0.3-0.2
	c0.6-0.3,1-0.8,1.4-1.3c0.5-0.9,0.3-1.9-0.4-2.6c-0.4,0.6-0.9,1.3-1.4,2.1c-0.4,0.7-0.9,1.4-1.4,2.1c-0.5,0.5-1.3,0.6-1.9,0.3
	c-0.6-0.3-1-0.8-0.5-1.4c0.7-0.6,1.8-0.6,2.4,0.1l0.2,0.2L30,39.3C29.9,39.3,30,39.3,30,39.3L30,39.3z M46.7,35.2l0.3,0.2
	c-0.3,0.8-0.6,1.6-0.7,2.5c0,2.3,1.4,4.3-0.5,6.8c-0.7,0.9-1.6,1.6-2.5,2.1c-0.3,0.1-0.6,0.4-0.9,0.2c0-0.3,0.4-0.3,0.6-0.5
	c1.1-0.6,2-1.5,2.6-2.5c0.9-1.6,0.5-3.6-0.8-4.9c-0.8,1-1.7,2.5-2.6,3.9c-0.8,1.4-1.6,2.7-2.6,3.9c-1,0.9-2.4,1.1-3.6,0.5
	c-1.1-0.5-1.8-1.5-1-2.6c1.1-1.3,3.9-1.1,4.9,0.6L46.7,35.2C46.6,35.2,46.6,35.2,46.7,35.2z M-14.5,0"/>
<path d="M39.3,30.9l0.2-0.1c1.3,0.3,3.3,2.3,4.1,3.9c1.5,2.7,1,6,0.5,7.8c0.5,0.8,1.2,1.4,1.7,2.3c2.7-1.3,4.7-0.5,6.2,1.6
	c0.1,0.2,0.2,0.5,0.4,0.7c0.5,1.6,0.2,3.4-0.9,4.8c2,2.3,4.7,6.2,1.6,8l-1.2,0.6c-1.3,0.2-2.9,0.1-3.6-1.4c-0.5-0.9-0.3-2,0.5-2.7
	c2-1.4,4.4,1.8,1.9,3.1c1.7,0.7,3.4-1.1,3.1-2.7c-0.3-1.8-2.1-3-2.8-4.4c-3.8,2.8-7.3,1.4-9.5-1.7l-0.7-1.3
	c-0.4-1.5-0.5-3.1-0.1-4.7c0.2-0.8,1.2-3.5,1-4.3c-0.3-0.5-0.7-1-1.1-1.5C38.9,36.3,37.9,33.1,39.3,30.9z M42.6,34.6
	c-0.3-0.7-0.9-1.6-1.4-1.4c-2.1,0.7-0.6,5,0.8,6.6C42.9,38.3,43.1,36.4,42.6,34.6z M43,50.9c1.3,2.5,4.6,3.3,7.4,1
	c-1.2-1.7-2.5-3.3-3.7-4.9c-1,0.9-1.1,2.5-0.2,3.5c0.6,0.6,1.4,0.2,2.1,0.8c-3.1,1.6-5.8-4.2-3.2-6.1c-0.5-0.7-1.1-1.4-1.7-2.1
	C43.1,45.4,41.5,48.1,43,50.9z M51,51.3c1.7-2.1-1-6.3-3.8-4.7C48.5,48.2,49.7,50,51,51.3z"/>
</svg>
