<svg xmlns="http://www.w3.org/2000/svg" viewBox="0 0 16.57 24.83"><defs><style>.cls-1,.cls-3,.cls-4{fill:none;stroke:#fff;}.cls-1,.cls-4{stroke-miterlimit:10;}.cls-2,.cls-5{fill:#fff;}.cls-3,.cls-4{stroke-linecap:round;}.cls-3{stroke-linejoin:round;stroke-width:0.75px;}.cls-5{opacity:0.5;}</style></defs><title>icon (3)</title><g id="Layer_2" data-name="Layer 2"><g id="book"><g id="icon"><rect class="cls-1" x="0.5" y="0.5" width="15.57" height="23.83" rx="2"/><rect class="cls-2" x="4.79" width="6.89" height="2.7" rx="1"/><path class="cls-3" d="M3,11.4A1.94,1.94,0,0,1,6.15,9.19c.58.57-.32,2.34-.21,2.79a11.52,11.52,0,0,0,3.15,3.07c.53.07,2.2-.84,2.78-.27a1.94,1.94,0,1,1-2.72,2.78h0l-5.8-5.67s0-.07-.08-.1-.11-.15-.15-.23A1.09,1.09,0,0,1,3,11.4Z"/><path class="cls-4" d="M10.75,10.79c0-.62-.64-1.16-1.5-1.2"/><path class="cls-4" d="M12.94,9.66C13,8.28,11.53,7.09,9.62,7"/><circle class="cls-5" cx="8.28" cy="22.33" r="0.91"/></g></g></g></svg>