<svg width="1200" height="438" viewBox="0 0 1200 438" fill="none" xmlns="http://www.w3.org/2000/svg">
<rect y="32" width="1200" height="326" fill="#E1E1D5" fill-opacity="0.63"/>
<path d="M190.649 231.757C190.649 231.757 190.708 231.702 190.649 231.757C190.887 231.374 190.589 231.538 190.649 231.757Z" fill="#CCF97D"/>
<path d="M360.321 224.64C360.983 224.365 360.442 224.64 360.321 224.64V224.64Z" fill="#CCF97D"/>
<path d="M360.321 224.639C352.565 228.362 343.186 227.432 336.692 222.066C345.831 219.548 357.856 212.047 360.562 203.232C357.556 211.171 346.733 217.193 338.436 219.712C332.183 221.573 328.395 220.04 322.743 217.741C319.617 216.317 315.829 216.92 312.823 218.288C310.237 219.438 308.073 221.3 305.848 222.887C300.617 226.61 294.785 226.939 288.352 226.391C281.377 225.789 255.463 220.424 253.479 220.095C258.229 216.482 262.859 212.704 268.03 209.528C273.26 211.554 278.732 213.525 284.564 212.978C287.811 212.704 288.953 211.883 291.959 213.142C294.364 214.127 297.31 215.113 300.016 214.675C301.279 214.565 313.364 210.569 313.364 209.747C313.364 209.638 304.766 212.211 304.044 212.375C299.896 213.525 296.469 212.649 292.861 210.569C300.136 207.284 307.772 205.97 315.588 204.437C308.975 204.929 301.88 204.875 295.507 206.736C287.63 208.926 281.858 209.912 274.222 206.134C285.165 200.987 296.829 202.958 308.494 200.44C320.158 197.976 327.734 187.847 332.965 178.649C329.477 183.358 324.968 187.409 320.639 191.516C314.687 196.115 308.073 197.264 300.377 196.991C292.621 196.717 285.045 195.896 277.409 197.429C269.653 199.016 262.498 202.411 255.824 206.189C257.327 200.933 260.815 194.636 265.745 191.351C259.853 194.308 254.982 200.987 252.878 206.681C251.375 210.842 241.935 214.511 237.666 216.81C238.027 217.139 203.395 215.441 192.994 229.129C191.13 223.161 191.971 216.591 193.775 210.678C194.256 209.036 194.857 207.448 195.519 205.86C196.06 204.601 200.088 202.904 204.357 201.371C204.417 201.371 204.477 201.371 204.598 201.371C205.079 201.316 205.68 201.316 206.341 201.316C206.702 201.316 207.003 201.316 207.424 201.316C207.784 201.316 208.205 201.371 208.626 201.371C210.31 201.425 212.234 201.699 214.278 202.028C216.322 202.411 218.547 202.958 220.711 203.615C222.876 204.272 225.04 205.094 226.964 205.915C228.948 206.736 230.752 207.612 232.255 208.379C233.037 208.762 233.698 209.145 234.299 209.474C234.901 209.802 235.442 210.076 235.863 210.35C236.704 210.842 237.185 211.116 237.185 211.116C237.185 211.116 236.765 210.788 235.983 210.185C235.622 209.857 235.081 209.528 234.54 209.145C233.999 208.707 233.337 208.269 232.616 207.831C231.233 206.846 229.55 205.805 227.686 204.71C225.822 203.615 223.717 202.575 221.613 201.59C219.449 200.659 217.284 199.783 215.12 199.126C214.518 198.962 213.977 198.797 213.376 198.633C213.737 198.524 214.037 198.469 214.338 198.359C230.932 193.815 243.98 188.121 259.372 181.223C260.935 183.632 275.305 184.07 278.672 184.234C286.728 184.617 295.206 183.248 300.377 177.062C291.298 185.329 277.469 181.551 266.827 178.43C277.169 175.255 288.051 174.543 298.874 174.05C308.434 173.612 318.294 172.189 324.246 164.579C313.364 176.076 292.741 170.765 278.191 171.751C282.88 166.276 291.899 157.023 300.858 160.308C296.649 158.173 290.697 160.034 286.668 161.567C280.596 163.812 272.479 172.134 272.599 172.353C258.71 174.105 246.926 180.073 234.36 185.274C239.47 176.897 245.483 168.302 254.982 163.648C246.505 166.55 240.011 172.627 234.36 178.868C230.932 182.646 206.642 193.541 203.095 193.596C208.686 186.698 216.502 181.77 222.575 175.255C227.205 170.273 230.632 164.195 233.097 158.118C241.995 154.943 252.758 153.738 259.432 150.836C262.919 149.303 267.549 147.387 270.976 145.471C276.086 142.569 290.516 134.192 296.469 139.12C290.095 132.276 271.757 141.912 265.023 144.102C267.969 139.448 270.194 133.864 275.305 130.743C280.415 127.458 286.728 126.089 292.741 124.775C303.443 122.531 317.092 120.56 321.661 110.048C313.785 123.352 292.2 119.684 278.672 123.297C283.301 118.37 287.751 113.333 292.861 108.843C286.728 112.949 281.317 117.713 275.665 122.312C270.675 126.363 265.985 129.155 262.077 134.083C258.049 139.12 254.922 143.664 248.549 146.292C244.4 147.88 240.071 148.701 235.803 149.906C236.344 147.716 236.765 145.525 237.005 143.335C237.306 141.036 238.869 140.653 240.552 139.01C244.28 135.452 246.565 130.853 247.948 126.199C250.653 117.11 252.517 92.1443 252.157 82.782C250.894 94.6628 247.767 125.706 237.366 134.302C236.464 115.796 224.86 103.751 207.604 95.265C215.781 100.028 223.717 105.503 228.467 113.387C233.818 122.312 234.42 133.152 232.375 142.843C230.572 139.941 228.167 137.313 225.521 135.014C224.259 133.919 222.936 132.878 221.553 131.893C222.455 130.196 222.876 128.334 222.996 126.473C223.417 119.519 219.869 112.676 216.382 106.653C219.088 113.387 222.936 122.969 218.607 129.812C211.392 124.885 198.766 114.592 204.237 105.011C199.066 111.8 205.139 122.695 210.31 128.006C216.743 134.63 222.816 134.795 231.173 147.497C229.249 153.738 226.183 159.542 222.154 165.126C220.23 167.809 217.885 170.218 215.3 172.463C213.616 173.886 211.933 176.405 209.949 174.817C208.446 173.612 206.943 172.353 205.439 171.094C202.493 168.575 199.728 166.002 197.082 163.21C193.715 159.651 193.895 158.994 195.399 154.614C197.563 148.318 200.569 142.35 203.816 136.437C203.876 136.601 203.936 136.656 203.936 136.656C203.936 136.656 207.484 135.287 208.386 132.605C209.348 129.922 207.363 126.965 207.363 126.965C207.363 126.965 203.816 128.334 202.914 131.017C202.253 132.988 203.095 135.068 203.636 136.054C198.946 142.241 194.557 148.646 191.37 155.6C187.342 148.92 186.019 141.529 185.598 134.028C185.117 125.597 185.658 114.482 193.475 108.679C183.434 114.209 181.57 127.677 181.029 137.313C176.159 129.593 175.858 118.37 178.203 109.883C174.355 118.698 173.152 130.853 177.602 139.667C178.624 141.748 180.848 143.39 180.969 145.635C181.029 147.004 181.209 148.373 181.45 149.741C182.231 153.957 183.614 157.954 185.538 161.896C174.655 158.501 167.501 150.782 166.959 140.215C166.358 146.566 168.102 152.753 172.551 157.735C175.317 160.746 178.864 163.21 182.652 165.071C185.899 166.55 188.484 166.878 190.348 169.78C192.813 173.12 195.459 176.35 198.285 179.416C201.471 182.975 202.253 182.263 198.585 185.603C191.671 191.625 186.5 199.947 183.374 208.105C179.886 196.826 177.782 185.274 171.288 175.036C169.184 171.915 156.558 143.774 158.121 138.572C160.105 131.893 162.871 126.527 165.577 120.012C168.643 112.676 170.687 104.956 171.228 97.0718C171.589 91.4325 171.83 80.811 163.893 79.2233C172.13 81.4133 170.387 93.0203 169.364 98.7143C167.921 106.763 164.855 114.318 161.007 121.655C159.023 115.194 157.279 108.624 155.596 102.054C153.912 94.7723 155.776 87.2168 153.552 80.0445C154.333 84.6435 153.371 89.2425 152.71 93.7868C152.048 98.9333 152.529 103.806 153.131 108.953C146.096 103.313 143.33 95.265 142.308 86.9978C142.128 95.3198 143.691 103.916 149.764 110.486C150.906 111.69 152.048 112.895 153.431 113.935C154.874 115.085 156.498 121.655 157.52 128.498C154.694 133.973 152.169 139.667 151.147 145.69C145.435 140.324 139.362 135.506 134.191 129.703C132.087 127.349 132.748 122.038 132.207 118.972C131.606 115.577 130.884 112.128 130.043 108.788C128.9 103.97 128.239 99.0975 127.337 94.2248C125.774 86.724 121.024 83.1105 114.41 78.4568C121.565 85.3553 124.812 89.8448 124.571 99.426C124.331 105.996 125.533 112.621 125.714 119.136C122.287 114.537 119.04 109.664 114.951 105.558C111.043 101.671 106.233 98.6048 101.844 95.2103C107.255 100.795 112.667 105.832 116.515 112.511C120.302 119.191 123.549 126.144 127.638 132.495C117.958 130.853 111.584 126.089 109.059 117.329C110.502 128.389 119.1 134.192 130.464 136.601C134.612 142.514 149.643 153.081 153.371 161.403C153.912 162.608 154.514 163.757 155.175 164.852C150.786 164.633 146.337 165.126 142.008 165.728C138.701 166.166 135.935 163.155 134.251 160.527C130.764 155.326 129.622 150.179 122.647 148.044C130.824 151.712 130.343 160.527 135.755 166.55C126.255 167.754 112.727 169.068 112.065 157.297C110.201 167.59 120.062 171.203 129.562 172.353C135.093 173.01 151.928 169.889 161.007 173.667C166.659 181.77 169.124 190.53 170.928 199.947C172.671 209.09 175.197 217.467 178.203 226.336C174.535 224.694 159.624 221.519 152.65 205.805C149.523 198.743 148.2 191.078 142.849 184.946C146.577 190.585 147.178 197.045 148.621 203.342C145.134 201.754 142.428 198.524 140.324 195.622C139.903 195.02 135.995 187.628 135.694 186.698C136.416 193.049 140.384 200.495 145.555 204.765C148.02 206.791 148.862 206.353 150.124 208.817C151.026 212.102 153.01 215.277 155.235 218.015C148.441 215.879 141.647 213.744 134.913 211.335C128.059 205.094 109.48 191.57 99.3188 157.516C98.1163 153.519 97.1543 149.468 95.4107 145.58C94.3885 143.336 93.3063 141.2 92.0437 139.065C90.4203 136.163 90.2399 136.382 91.3222 133.59C93.4265 128.006 92.7652 121.874 92.5247 116.07C92.3443 108.022 90.3 99.3165 82.604 94.4438C87.5944 98.4953 89.4583 104.573 89.5184 110.486C83.9869 105.558 79.4174 99.864 74.0663 94.827C79.1168 101.069 83.2654 107.967 88.7368 113.99C89.6988 115.03 88.9773 116.399 88.857 117.658C88.5564 121.819 88.1957 126.144 86.5723 130.086C82.7844 123.571 80.3193 116.289 75.0283 110.54C70.1582 105.23 63.1836 102.109 58.073 97.0718C63.9051 104.463 72.022 109.117 75.9302 117.822C79.1168 124.94 81.4617 132.331 84.5882 139.503C78.4554 136.547 71.6012 134.247 66.731 129.539C66.3703 123.68 65.9494 117.658 62.7628 112.402C64.7469 117.056 64.7469 121.983 64.3861 126.856C57.592 117.932 53.2029 108.624 39.795 108.296C54.706 110.486 55.3073 122.476 62.6425 132.002C52.0605 131.674 42.3203 126.911 31.7383 126.308C38.2919 127.458 44.2443 130.086 50.377 132.44C52.3612 133.207 64.7469 137.97 66.1298 135.78C72.2024 141.31 87.5343 148.92 87.8349 148.373C90.1798 156.476 98.0562 170.765 100.341 178.759C96.553 177.335 83.4458 170.437 79.3573 169.78C76.351 169.287 75.6295 165.783 73.8258 163.538C69.5569 158.228 63.845 153.683 57.7724 150.125C64.0855 154.997 70.8797 161.622 73.4049 168.959C71.1202 168.685 55.187 168.521 54.5858 166.933C52.4213 161.129 46.1683 157.79 41.5386 153.793C45.1461 157.844 50.2568 161.513 51.9403 166.714C46.4088 165.728 41.3583 163.757 35.947 162.389C29.694 160.801 23.2606 160.527 16.8273 160.418C26.0865 161.403 34.2034 163.429 42.681 166.933C39.314 167.535 34.8648 169.287 31.137 171.477C27.289 173.777 21.9379 181.88 16.8273 181.277C21.7575 182.537 28.6118 175.091 32.7604 173.229C35.947 171.86 50.0764 169.67 49.9561 169.451C62.7026 172.901 76.7719 173.174 88.6767 178.978C94.3885 181.77 98.3568 186.588 102.746 190.859C107.195 195.184 111.644 199.509 115.913 203.944C109.179 202.028 102.385 201.863 95.5309 203.232C92.6449 203.834 79.237 207.831 78.9965 208.214C78.9965 207.941 65.288 205.586 64.3861 205.258C63.4241 204.875 50.0163 197.429 43.8835 200.495C48.8138 200.878 53.0225 201.371 57.0509 203.834C62.1615 206.9 66.6709 209.528 72.6834 210.897C63.7248 214.237 55.4275 214.784 45.8677 214.073C36.8489 213.361 27.8903 212.43 18.9316 213.854C36.9691 212.156 54.0446 219.767 71.9018 214.784C81.642 212.047 91.2019 207.941 101.604 207.722C106.293 207.612 110.803 208.652 115.072 210.35C118.439 211.664 139.963 221.683 142.489 222.668C137.318 223.928 132.388 225.734 127.277 227.158C124.932 227.869 121.926 228.691 119.821 227.377C115.132 224.42 111.825 220.752 106.414 218.726C102.085 217.139 97.5752 216.482 92.9455 216.153C102.445 218.015 108.939 221.738 115.372 228.308C113.388 228.198 94.2683 225.844 89.7589 225.734C83.4458 225.515 77.1928 225.68 70.9398 226.008C80.0788 226.665 89.0975 227.651 97.996 229.676C88.4362 235.973 77.9744 244.678 66.0095 236.63C72.7435 242.488 82.5439 242.378 90.5405 238.765C94.3885 237.013 97.8157 234.549 101.664 232.852C107.075 230.498 113.148 233.618 118.92 234.111C127.397 234.823 135.274 232.469 143.571 231.374C151.868 230.279 166.839 233.126 166.719 232.414C172.371 234.987 176.82 246.923 176.519 252.671C175.497 269.753 178.564 289.244 176.7 301.07C174.174 316.784 176.76 341.421 171.89 357.353C176.7 361.295 196 361.952 202.493 358.175C202.072 340.983 196.18 324.503 196 307.367C195.759 289.135 194.136 253.602 195.038 253.931C199.667 241.886 202.133 228.472 218.366 226.391C233.698 224.366 247.707 226.337 262.799 228.198C265.564 231.976 270.555 235.808 273.14 237.177C275.545 238.436 281.918 240.243 284.744 240.298C292.681 240.352 300.617 238.272 302.301 240.955C303.984 243.692 306.149 246.211 308.915 248.127C313.003 250.865 317.873 251.905 322.803 250.865C314.747 251.576 308.133 246.704 305.247 240.079C308.854 241.393 312.041 243.583 316.069 243.856C322.984 244.349 327.493 239.641 333.626 237.779C327.553 238.82 322.022 243.309 315.588 241.393C312.342 240.407 309.816 238.108 306.87 236.63C302.962 234.659 299.956 235.425 295.867 236.137C289.494 237.56 279.032 235.097 274.884 229.841C284.624 231.702 297.852 233.509 306.449 227.76C309.516 225.734 311.921 222.778 315.288 221.19C321.541 218.069 333.265 223.38 333.085 223.544C341.081 230.279 353.407 230.388 361.945 224.366C361.103 224.256 360.742 224.475 360.321 224.639ZM190.649 231.757C190.589 231.538 190.889 231.374 190.649 231.757V231.757Z" fill="#FCFCFC"/>
<path d="M135.273 186.533C135.273 186.478 135.273 186.478 135.273 186.424C135.214 186.424 135.214 186.424 135.273 186.533Z" fill="#CCF97D"/>
<path d="M190.649 231.757C190.706 231.702 190.649 231.757 190.649 231.757V231.757Z" fill="white"/>
<path d="M56.3896 235.37C53.2029 236.63 51.9403 240.352 51.9403 240.352C51.9403 240.352 55.7883 242.05 58.9749 240.79C62.1616 239.531 63.4242 235.808 63.4242 235.808C63.4242 235.808 59.5762 234.111 56.3896 235.37Z" fill="#CCF97D"/>
<path d="M57.2914 223.927C57.2914 223.927 55.8484 227.596 57.592 230.333C59.3356 233.071 63.5444 233.782 63.5444 233.782C63.5444 233.782 64.9874 230.114 63.2437 227.377C61.5001 224.694 57.2914 223.927 57.2914 223.927Z" fill="#CCF97D"/>
<path d="M110.622 152.041C110.622 152.041 113.809 153.464 116.454 152.424C119.1 151.384 120.122 148.318 120.122 148.318C120.122 148.318 116.935 146.894 114.29 147.935C111.705 148.975 110.622 152.041 110.622 152.041Z" fill="#CCF97D"/>
<path d="M120.182 146.62C120.182 146.62 121.385 143.554 119.942 141.31C118.499 139.065 115.011 138.463 115.011 138.463C115.011 138.463 113.809 141.529 115.252 143.773C116.695 146.018 120.182 146.62 120.182 146.62Z" fill="#CCF97D"/>
<path d="M179.405 97.0717C179.405 97.0717 176.7 99.1522 176.64 101.78C176.579 104.408 179.285 106.544 179.285 106.544C179.285 106.544 181.991 104.463 182.051 101.835C182.051 99.207 179.405 97.0717 179.405 97.0717Z" fill="#CCF97D"/>
<path d="M180.908 107.201C180.908 107.201 183.494 109.445 186.32 109.172C189.145 108.898 191.19 106.27 191.19 106.27C191.19 106.27 188.604 104.025 185.778 104.299C182.953 104.573 180.908 107.201 180.908 107.201Z" fill="#CCF97D"/>
<path d="M293.282 107.693C293.282 107.693 295.988 105.613 296.048 102.985C296.108 100.357 293.402 98.2215 293.402 98.2215C293.402 98.2215 290.697 100.302 290.637 102.93C290.637 105.558 293.282 107.693 293.282 107.693Z" fill="#CCF97D"/>
<path d="M294.905 108.46C294.905 108.46 297.491 110.704 300.317 110.431C303.143 110.157 305.187 107.529 305.187 107.529C305.187 107.529 302.601 105.284 299.776 105.558C296.95 105.777 294.905 108.46 294.905 108.46Z" fill="#CCF97D"/>
<path d="M262.558 159.268C264.542 156.695 263.52 152.971 263.52 152.971C263.52 152.971 259.251 153.355 257.267 155.873C255.283 158.447 256.305 162.17 256.305 162.17C256.305 162.17 260.574 161.786 262.558 159.268Z" fill="#CCF97D"/>
<path d="M261.235 169.232C264.242 170.765 268.21 169.451 268.21 169.451C268.21 169.451 267.368 165.673 264.362 164.14C261.356 162.607 257.387 163.921 257.387 163.921C257.387 163.921 258.229 167.699 261.235 169.232Z" fill="#CCF97D"/>
<path d="M368.498 220.095C370.483 217.576 369.46 213.799 369.46 213.799C369.46 213.799 365.192 214.182 363.207 216.7C361.223 219.274 362.245 222.997 362.245 222.997C362.245 222.997 366.514 222.614 368.498 220.095Z" fill="#CCF97D"/>
<path d="M370.302 224.913C367.296 223.38 363.328 224.694 363.328 224.694C363.328 224.694 364.169 228.472 367.176 230.005C370.182 231.538 374.15 230.224 374.15 230.224C374.15 230.224 373.308 226.446 370.302 224.913Z" fill="#CCF97D"/>
<path d="M104.429 79.1685C108.217 79.9898 112.065 77.4165 112.065 77.4165C112.065 77.4165 109.841 73.5293 106.113 72.708C102.325 71.8868 98.4771 74.46 98.4771 74.46C98.4771 74.46 100.642 78.3473 104.429 79.1685Z" fill="#CCF97D"/>
<path d="M118.138 69.7515C118.619 66.2475 115.432 63.0172 115.432 63.0172C115.432 63.0172 111.404 65.4262 110.923 68.9302C110.442 72.4343 113.629 75.6645 113.629 75.6645C113.629 75.6645 117.657 73.2555 118.138 69.7515Z" fill="#CCF97D"/>
<path d="M261.777 86.3955C258.049 87.2715 255.884 91.2135 255.884 91.2135C255.884 91.2135 259.853 93.732 263.58 92.856C267.308 91.98 269.473 88.038 269.473 88.038C269.473 88.038 265.564 85.5195 261.777 86.3955Z" fill="#CCF97D"/>
<path d="M261.656 95.5388C258.891 94.4985 255.584 96.0315 255.584 96.0315C255.584 96.0315 256.786 99.207 259.552 100.247C262.318 101.288 265.625 99.7545 265.625 99.7545C265.625 99.7545 264.422 96.579 261.656 95.5388Z" fill="#CCF97D"/>
<path d="M254.622 100.247C254.622 100.247 253.058 104.353 254.982 107.419C256.906 110.485 261.656 111.307 261.656 111.307C261.656 111.307 263.22 107.2 261.296 104.134C259.372 101.068 254.622 100.247 254.622 100.247Z" fill="#CCF97D"/>
<path d="M67.4525 148.92C66.731 151.11 68.3544 153.519 68.3544 153.519C68.3544 153.519 71.2404 152.369 71.9619 150.179C72.6834 147.989 71.0601 145.58 71.0601 145.58C71.0601 145.58 68.174 146.73 67.4525 148.92Z" fill="#CCF97D"/>
<path d="M74.1865 150.289C71.541 152.041 71.2404 155.709 71.2404 155.709C71.2404 155.709 75.2087 156.53 77.794 154.778C80.4395 153.026 80.7402 149.358 80.7402 149.358C80.7402 149.358 76.7719 148.482 74.1865 150.289Z" fill="#CCF97D"/>
<path d="M73.7056 158.337C73.7056 158.337 75.1486 159.925 76.9523 159.979C78.7561 160.034 80.2592 158.501 80.2592 158.501C80.2592 158.501 78.8162 156.913 77.0125 156.859C75.2087 156.859 73.7056 158.337 73.7056 158.337Z" fill="#CCF97D"/>
<path d="M242.537 95.703C240.312 96.9075 239.711 99.7545 239.711 99.7545C239.711 99.7545 242.777 100.74 245.002 99.5355C247.226 98.331 247.828 95.484 247.828 95.484C247.828 95.484 244.821 94.4985 242.537 95.703Z" fill="#CCF97D"/>
<path d="M240.913 94.2248C244.22 94.5533 247.286 91.98 247.286 91.98C247.286 91.98 244.942 88.8593 241.635 88.476C238.328 88.1475 235.261 90.7208 235.261 90.7208C235.261 90.7208 237.606 93.8963 240.913 94.2248Z" fill="#CCF97D"/>
<path d="M247.527 88.476C247.527 88.476 247.647 86.3955 246.324 85.191C245.002 83.9865 242.717 84.2055 242.717 84.2055C242.717 84.2055 242.597 86.286 243.919 87.4905C245.242 88.6403 247.527 88.476 247.527 88.476Z" fill="#CCF97D"/>
<path d="M303.503 135.835C306.089 135.506 307.832 133.042 307.832 133.042C307.832 133.042 305.427 131.072 302.842 131.4C300.257 131.728 298.513 134.192 298.513 134.192C298.513 134.192 300.918 136.163 303.503 135.835Z" fill="#CCF97D"/>
<path d="M301.399 142.733C304.345 144.212 308.253 142.843 308.253 142.843C308.253 142.843 307.411 139.12 304.465 137.696C301.519 136.218 297.611 137.587 297.611 137.587C297.611 137.587 298.453 141.255 301.399 142.733Z" fill="#CCF97D"/>
<path d="M295.867 140.817C295.867 140.817 294.845 142.733 295.627 144.266C296.348 145.799 298.573 146.456 298.573 146.456C298.573 146.456 299.595 144.54 298.814 143.007C298.092 141.419 295.867 140.817 295.867 140.817Z" fill="#CCF97D"/>
<path d="M58.1332 196.114C58.4939 199.016 61.8008 201.097 61.8008 201.097C61.8008 201.097 64.5064 198.414 64.2058 195.512C63.845 192.61 60.5382 190.53 60.5382 190.53C60.5382 190.53 57.7724 193.213 58.1332 196.114Z" fill="#CCF97D"/>
<path d="M66.7911 194.581C64.6867 197.866 66.3702 202.301 66.3702 202.301C66.3702 202.301 71.4808 201.425 73.5251 198.195C75.6295 194.91 73.946 190.475 73.946 190.475C73.946 190.475 68.8955 191.296 66.7911 194.581Z" fill="#CCF97D"/>
<path d="M70.6993 204.327C70.6993 204.327 73.2246 205.532 75.3891 204.765C77.5536 203.999 78.4555 201.535 78.4555 201.535C78.4555 201.535 75.9302 200.33 73.7657 201.097C71.6012 201.863 70.6993 204.327 70.6993 204.327Z" fill="#CCF97D"/>
<path d="M312.642 184.891C312.642 184.891 311.74 181.332 308.915 179.963C306.089 178.594 302.361 179.908 302.361 179.908C302.361 179.908 303.263 183.467 306.089 184.836C308.915 186.205 312.642 184.891 312.642 184.891Z" fill="#CCF97D"/>
<path d="M298.693 182.646C298.693 182.646 296.589 186.971 298.393 190.366C300.196 193.76 305.187 195.02 305.187 195.02C305.187 195.02 307.291 190.694 305.487 187.3C303.624 183.905 298.693 182.646 298.693 182.646Z" fill="#CCF97D"/>
<path d="M291.358 188.066C290.877 190.092 292.561 192.227 292.561 192.227C292.561 192.227 295.086 190.968 295.567 188.942C296.048 186.862 294.364 184.781 294.364 184.781C294.364 184.781 291.839 185.986 291.358 188.066Z" fill="#CCF97D"/>
<path d="M53.8642 144.376C53.8642 144.376 56.2091 141.419 55.4275 138.572C54.6459 135.725 51.0985 134.083 51.0985 134.083C51.0985 134.083 48.7536 137.039 49.5352 139.886C50.3169 142.678 53.8642 144.376 53.8642 144.376Z" fill="#CCF97D"/>
<path d="M40.5767 146.073C40.5767 146.073 45.5069 144.595 47.0702 141.091C48.6935 137.587 46.3486 133.371 46.3486 133.371C46.3486 133.371 41.4184 134.849 39.8552 138.353C38.2919 141.857 40.5767 146.073 40.5767 146.073Z" fill="#CCF97D"/>
<path d="M37.0894 132.057C35.1053 133.097 34.504 135.671 34.504 135.671C34.504 135.671 37.2097 136.547 39.1938 135.506C41.238 134.466 41.7792 131.893 41.7792 131.893C41.7792 131.893 39.1337 131.017 37.0894 132.057Z" fill="#CCF97D"/>
<path d="M269.833 117.494C272.9 118.424 276.327 116.563 276.327 116.563C276.327 116.563 274.824 113.168 271.757 112.238C268.691 111.307 265.264 113.168 265.264 113.168C265.264 113.168 266.767 116.563 269.833 117.494Z" fill="#CCF97D"/>
<path d="M279.453 113.278C279.453 113.278 280.716 108.734 278.311 105.613C275.906 102.492 270.795 102.054 270.795 102.054C270.795 102.054 269.533 106.598 271.938 109.719C274.282 112.785 279.453 113.278 279.453 113.278Z" fill="#CCF97D"/>
<path d="M283.241 110.54C283.241 110.54 285.526 108.952 285.646 106.817C285.766 104.737 283.722 102.93 283.722 102.93C283.722 102.93 281.437 104.518 281.317 106.653C281.197 108.733 283.241 110.54 283.241 110.54Z" fill="#CCF97D"/>
<path d="M215.3 88.8045C215.781 85.3005 212.594 82.0703 212.594 82.0703C212.594 82.0703 208.566 84.4793 208.085 87.9833C207.604 91.4873 210.791 94.7175 210.791 94.7175C210.791 94.7175 214.819 92.3085 215.3 88.8045Z" fill="#CCF97D"/>
<path d="M221.433 94.9913C223.477 93.0203 223.116 89.6805 223.116 89.6805C223.116 89.6805 219.388 89.5163 217.344 91.4873C215.3 93.4583 215.661 96.798 215.661 96.798C215.661 96.798 219.388 96.9623 221.433 94.9913Z" fill="#CCF97D"/>
<path d="M219.569 99.1523C219.569 99.1523 223.176 101.999 227.024 101.507C230.872 101.014 233.458 97.2908 233.458 97.2908C233.458 97.2908 229.85 94.4438 226.002 94.9365C222.154 95.4293 219.569 99.1523 219.569 99.1523Z" fill="#CCF97D"/>
<path d="M63.6046 174.269C63.6046 174.269 60.8388 177.828 61.7407 181.277C62.6426 184.672 66.9716 186.698 66.9716 186.698C66.9716 186.698 69.7374 183.139 68.8355 179.69C67.8735 176.24 63.6046 174.269 63.6046 174.269Z" fill="#CCF97D"/>
<path d="M53.5636 177.499C52.4213 180.018 54.1048 183.029 54.1048 183.029C54.1048 183.029 57.6522 181.989 58.7945 179.47C59.9369 176.952 58.2534 173.941 58.2534 173.941C58.2534 173.941 54.706 174.981 53.5636 177.499Z" fill="#CCF97D"/>
<path d="M45.7474 173.284C42.3804 175.036 41.4184 179.306 41.4184 179.306C41.4184 179.306 45.9278 180.784 49.2948 179.032C52.6618 177.28 53.6238 173.01 53.6238 173.01C53.6238 173.01 49.1144 171.532 45.7474 173.284Z" fill="white"/>
<path d="M343.607 190.092C343.607 190.092 341.442 186.205 337.654 185.329C333.866 184.507 329.958 187.026 329.958 187.026C329.958 187.026 332.123 190.913 335.911 191.789C339.699 192.665 343.607 190.092 343.607 190.092Z" fill="#CCF97D"/>
<path d="M334.107 198.797C334.107 198.797 334.708 195.458 332.844 193.377C330.92 191.297 327.253 191.242 327.253 191.242C327.253 191.242 326.651 194.582 328.515 196.662C330.379 198.742 334.107 198.797 334.107 198.797Z" fill="#CCF97D"/>
<path d="M324.126 194.527C324.126 194.527 320.579 197.483 320.699 200.987C320.819 204.491 324.547 207.283 324.547 207.283C324.547 207.283 328.094 204.327 327.974 200.823C327.914 197.264 324.126 194.527 324.126 194.527Z" fill="#CCF97D"/>
<path d="M328.215 119.081C331.642 120.724 336.091 119.191 336.091 119.191C336.091 119.191 335.069 114.92 331.642 113.278C328.215 111.635 323.765 113.168 323.765 113.168C323.765 113.168 324.848 117.384 328.215 119.081Z" fill="#CCF97D"/>
<path d="M319.917 116.563C319.917 116.563 318.414 119.629 319.677 122.093C320.939 124.556 324.547 125.432 324.547 125.432C324.547 125.432 326.05 122.366 324.787 119.903C323.525 117.439 319.917 116.563 319.917 116.563Z" fill="#CCF97D"/>
<path d="M318.114 125.98C318.955 122.53 316.13 119.026 316.13 119.026C316.13 119.026 311.861 121.107 311.019 124.501C310.177 127.951 313.003 131.455 313.003 131.455C313.003 131.455 317.272 129.429 318.114 125.98Z" fill="#CCF97D"/>
<path d="M172.01 71.4487C173.934 68.3827 172.371 64.2765 172.371 64.2765C172.371 64.2765 167.621 65.0977 165.697 68.109C163.773 71.175 165.336 75.2812 165.336 75.2812C165.336 75.2812 170.086 74.5147 172.01 71.4487Z" fill="#CCF97D"/>
<path d="M169.004 78.9495C169.004 78.9495 172.311 80.4278 175.076 79.3328C177.842 78.2378 178.924 75.0623 178.924 75.0623C178.924 75.0623 175.617 73.584 172.852 74.679C170.086 75.7193 169.004 78.9495 169.004 78.9495Z" fill="#CCF97D"/>
<path d="M171.589 82.5083C171.589 82.5083 173.693 86.4503 177.421 87.3262C181.149 88.2022 185.117 85.7385 185.117 85.7385C185.117 85.7385 183.013 81.7965 179.285 80.9205C175.557 80.0445 171.589 82.5083 171.589 82.5083Z" fill="#CCF97D"/>
<path d="M128.299 144.211C127.036 146.182 128.059 148.865 128.059 148.865C128.059 148.865 131.125 148.318 132.388 146.347C133.65 144.376 132.628 141.693 132.628 141.693C132.628 141.693 129.562 142.24 128.299 144.211Z" fill="#CCF97D"/>
<path d="M132.869 148.427C131.065 149.139 130.343 151.22 130.343 151.22C130.343 151.22 132.508 152.205 134.312 151.493C136.115 150.782 136.837 148.701 136.837 148.701C136.837 148.701 134.672 147.716 132.869 148.427Z" fill="#CCF97D"/>
<path d="M137.077 152.479C134.672 151.876 132.087 153.519 132.087 153.519C132.087 153.519 133.47 156.092 135.875 156.64C138.28 157.242 140.865 155.599 140.865 155.599C140.865 155.599 139.482 153.081 137.077 152.479Z" fill="white"/>
<path d="M139.903 162.772C142.308 163.374 144.894 161.731 144.894 161.731C144.894 161.731 143.511 159.158 141.106 158.611C138.701 158.008 136.115 159.651 136.115 159.651C136.115 159.651 137.498 162.224 139.903 162.772Z" fill="#CCF97D"/>
<path d="M209.227 204.929C205.981 206.626 205.079 210.733 205.079 210.733C205.079 210.733 209.468 212.156 212.715 210.514C215.961 208.871 216.863 204.71 216.863 204.71C216.863 204.71 212.474 203.287 209.227 204.929Z" fill="#CCF97D"/>
<path d="M221.012 210.185C221.252 207.721 218.968 205.531 218.968 205.531C218.968 205.531 216.202 207.283 215.961 209.747C215.721 212.211 218.006 214.401 218.006 214.401C218.006 214.401 220.711 212.649 221.012 210.185Z" fill="#CCF97D"/>
<path d="M196.721 90.7755C199.728 93.0202 204.417 92.3085 204.417 92.3085C204.417 92.3085 204.297 87.9285 201.351 85.6837C198.345 83.439 193.655 84.1507 193.655 84.1507C193.655 84.1507 193.715 88.5307 196.721 90.7755Z" fill="#CCF97D"/>
<path d="M204.357 94.4438C204.357 94.4438 201.471 92.6918 198.766 93.3488C196.06 94.0058 194.557 96.9075 194.557 96.9075C194.557 96.9075 197.443 98.6595 200.148 98.0025C202.854 97.2908 204.357 94.4438 204.357 94.4438Z" fill="#CCF97D"/>
<path d="M257.087 74.0768C257.568 70.5728 254.381 67.3425 254.381 67.3425C254.381 67.3425 250.353 69.7515 249.872 73.2555C249.391 76.7595 252.577 79.9898 252.577 79.9898C252.577 79.9898 256.606 77.5808 257.087 74.0768Z" fill="#CCF97D"/>
<path d="M262.799 82.0155C266.106 80.2088 266.947 75.8835 266.947 75.8835C266.947 75.8835 262.378 74.5148 259.071 76.2668C255.764 78.0735 254.922 82.3987 254.922 82.3987C254.922 82.3987 259.432 83.8222 262.799 82.0155Z" fill="#CCF97D"/>
<path d="M250.593 81.0847C250.593 81.0847 250.713 77.9092 248.609 76.212C246.505 74.5147 243.078 74.898 243.078 74.898C243.078 74.898 242.957 78.0735 245.062 79.7707C247.106 81.468 250.593 81.0847 250.593 81.0847Z" fill="#CCF97D"/>
<path d="M100.461 94.7723C100.461 94.7723 101.243 91.323 99.3789 89.0783C97.515 86.8335 93.667 86.6145 93.667 86.6145C93.667 86.6145 92.8854 90.0638 94.7493 92.3085C96.6131 94.5533 100.461 94.7723 100.461 94.7723Z" fill="#CCF97D"/>
<path d="M101.904 89.4068C101.122 92.1443 103.287 95.046 103.287 95.046C103.287 95.046 106.774 93.513 107.556 90.7755C108.337 88.038 106.173 85.1363 106.173 85.1363C106.173 85.1363 102.686 86.6693 101.904 89.4068Z" fill="#CCF97D"/>
<path d="M95.9517 98.55C98.1764 98.4952 99.9801 96.4695 99.9801 96.4695C99.9801 96.4695 98.0561 94.608 95.8315 94.6627C93.6069 94.7175 91.8031 96.7432 91.8031 96.7432C91.8031 96.7432 93.7271 98.6047 95.9517 98.55Z" fill="#CCF97D"/>
<path d="M29.213 109.391C32.8806 110.595 37.0293 108.405 37.0293 108.405C37.0293 108.405 35.2856 104.299 31.6781 103.149C28.0105 101.944 23.8619 104.135 23.8619 104.135C23.8619 104.135 25.6055 108.186 29.213 109.391Z" fill="#CCF97D"/>
<path d="M40.1558 106.872C40.1558 106.872 42.6209 103.094 41.4184 99.7545C40.2159 96.4147 35.7667 94.7175 35.7667 94.7175C35.7667 94.7175 33.3015 98.4952 34.504 101.835C35.7065 105.229 40.1558 106.872 40.1558 106.872Z" fill="#CCF97D"/>
<path d="M32.0991 111.143C29.8143 112.621 29.4536 115.796 29.4536 115.796C29.4536 115.796 32.8206 116.563 35.1053 115.085C37.3901 113.606 37.7508 110.431 37.7508 110.431C37.7508 110.431 34.3838 109.664 32.0991 111.143Z" fill="#CCF97D"/>
<path d="M7.80852 185.11C4.92252 187.464 4.98264 191.844 4.98264 191.844C4.98264 191.844 9.73252 192.392 12.6185 190.037C15.5045 187.683 15.4444 183.303 15.4444 183.303C15.4444 183.303 10.6945 182.755 7.80852 185.11Z" fill="#CCF97D"/>
<path d="M9.25153 175.693C5.46365 175.09 1.7359 177.828 1.7359 177.828C1.7359 177.828 4.20103 181.606 7.9889 182.208C11.7768 182.81 15.5045 180.073 15.5045 180.073C15.5045 180.073 13.0995 176.295 9.25153 175.693Z" fill="#CCF97D"/>
<path d="M21.036 188.011C20.6753 185.493 17.7893 183.686 17.7893 183.686C17.7893 183.686 15.4444 186.04 15.745 188.559C16.1058 191.077 18.9918 192.884 18.9918 192.884C18.9918 192.884 21.3366 190.53 21.036 188.011Z" fill="#CCF97D"/>
<path d="M369.52 196.826C371.745 193.924 370.543 189.709 370.543 189.709C370.543 189.709 365.733 190.147 363.568 193.048C361.344 195.95 362.546 200.166 362.546 200.166C362.546 200.166 367.296 199.673 369.52 196.826Z" fill="#CCF97D"/>
<path d="M370.122 199.618C366.274 199.783 363.328 203.287 363.328 203.287C363.328 203.287 366.635 206.462 370.543 206.243C374.391 206.079 377.337 202.575 377.337 202.575C377.337 202.575 373.97 199.454 370.122 199.618Z" fill="#CCF97D"/>
<path d="M360.201 200.221C360.201 200.221 361.885 197.429 360.923 195.02C359.961 192.611 356.714 191.516 356.714 191.516C356.714 191.516 355.03 194.308 355.992 196.717C356.894 199.126 360.201 200.221 360.201 200.221Z" fill="#CCF97D"/>
<path d="M328.515 100.795C329.718 97.455 327.193 93.6772 327.193 93.6772C327.193 93.6772 322.743 95.3745 321.601 98.7142C320.398 102.054 322.924 105.832 322.924 105.832C322.924 105.832 327.373 104.189 328.515 100.795Z" fill="#CCF97D"/>
<path d="M324.667 108.679C324.667 108.679 328.876 110.814 332.483 109.609C336.091 108.405 337.835 104.299 337.835 104.299C337.835 104.299 333.626 102.164 330.018 103.368C326.351 104.572 324.667 108.679 324.667 108.679Z" fill="#CCF97D"/>
<path d="M320.699 106.598C320.699 106.598 321.42 103.478 319.737 101.452C318.053 99.426 314.566 99.207 314.566 99.207C314.566 99.207 313.845 102.328 315.528 104.354C317.212 106.379 320.699 106.598 320.699 106.598Z" fill="#CCF97D"/>
<path d="M205.199 138.791C205.199 138.791 208.566 140.488 211.452 139.503C214.338 138.517 215.721 135.287 215.721 135.287C215.721 135.287 212.354 133.59 209.468 134.575C206.522 135.561 205.199 138.791 205.199 138.791Z" fill="#CCF97D"/>
<path d="M197.924 135.397C199.247 137.039 202.072 137.204 202.072 137.204C202.072 137.204 202.674 134.74 201.291 133.097C199.968 131.455 197.142 131.29 197.142 131.29C197.142 131.29 196.541 133.754 197.924 135.397Z" fill="#CCF97D"/>
<path d="M163.532 76.7595C163.532 76.7595 163.653 73.584 161.548 71.8867C159.444 70.1895 156.017 70.5727 156.017 70.5727C156.017 70.5727 155.896 73.7482 158.001 75.4455C160.105 77.1427 163.532 76.7595 163.532 76.7595Z" fill="#CCF97D"/>
<path d="M147.118 77.745C147.599 74.241 144.413 71.0107 144.413 71.0107C144.413 71.0107 140.384 73.4197 139.903 76.9237C139.422 80.4277 142.609 83.658 142.609 83.658C142.609 83.658 146.637 81.249 147.118 77.745Z" fill="#CCF97D"/>
<path d="M140.625 84.753C140.625 84.753 140.745 81.5775 138.641 79.8802C136.536 78.183 133.109 78.5662 133.109 78.5662C133.109 78.5662 132.989 81.7417 135.093 83.439C137.137 85.1363 140.625 84.753 140.625 84.753Z" fill="#CCF97D"/>
<path d="M308.013 158.885C310.478 157.68 311.32 154.614 311.32 154.614C311.32 154.614 308.073 153.464 305.608 154.614C303.143 155.818 302.301 158.885 302.301 158.885C302.301 158.885 305.487 160.034 308.013 158.885Z" fill="#CCF97D"/>
<path d="M334.407 178.43C334.407 178.43 338.556 180.62 342.224 179.416C345.891 178.211 347.635 174.16 347.635 174.16C347.635 174.16 343.486 171.97 339.819 173.174C336.151 174.379 334.407 178.43 334.407 178.43Z" fill="#CCF97D"/>
<path d="M336.332 173.503C337.053 171.039 335.129 168.411 335.129 168.411C335.129 168.411 332.003 169.78 331.221 172.243C330.499 174.707 332.423 177.335 332.423 177.335C332.423 177.335 335.55 175.966 336.332 173.503Z" fill="#CCF97D"/>
<path d="M341.142 232.195C337.474 233.399 335.73 237.451 335.73 237.451C335.73 237.451 339.879 239.641 343.547 238.436C347.214 237.232 348.958 233.18 348.958 233.18C348.958 233.18 344.809 230.99 341.142 232.195Z" fill="#CCF97D"/>
<path d="M337.654 232.468C338.376 230.005 336.452 227.377 336.452 227.377C336.452 227.377 333.325 228.745 332.544 231.209C331.822 233.673 333.746 236.301 333.746 236.301C333.746 236.301 336.933 234.932 337.654 232.468Z" fill="#CCF97D"/>
<path d="M34.985 187.409C34.985 187.409 33.6623 191.625 35.7667 194.582C37.871 197.538 42.681 198.086 42.681 198.086C42.681 198.086 44.0038 193.87 41.8994 190.913C39.7349 188.012 34.985 187.409 34.985 187.409Z" fill="#CCF97D"/>
<path d="M31.7383 199.837C31.7383 199.837 33.9629 202.301 36.7287 202.411C39.5545 202.465 41.8994 200.166 41.8994 200.166C41.8994 200.166 39.6748 197.702 36.909 197.593C34.0832 197.483 31.7383 199.837 31.7383 199.837Z" fill="#CCF97D"/>
<path d="M57.1711 95.5935C57.1711 95.5935 60.5983 92.5275 60.2976 88.9688C59.997 85.4648 56.149 82.8368 56.149 82.8368C56.149 82.8368 52.7219 85.9028 53.0225 89.4615C53.3232 92.9655 57.1711 95.5935 57.1711 95.5935Z" fill="#CCF97D"/>
<path d="M49.7156 96.6885C52.1206 98.0025 55.4275 97.017 55.4275 97.017C55.4275 97.017 54.8262 93.8963 52.4212 92.5823C50.0162 91.2683 46.7094 92.2538 46.7094 92.2538C46.7094 92.2538 47.3106 95.3745 49.7156 96.6885Z" fill="#CCF97D"/>
<path d="M109.3 116.289C109.3 116.289 111.885 113.935 111.644 111.307C111.404 108.624 108.518 106.653 108.518 106.653C108.518 106.653 105.933 109.007 106.173 111.69C106.353 114.318 109.3 116.289 109.3 116.289Z" fill="#CCF97D"/>
<path d="M101.363 113.77C101.363 113.77 101.844 116.125 103.648 117.165C105.452 118.15 107.977 117.384 107.977 117.384C107.977 117.384 107.496 115.03 105.692 113.989C103.888 113.004 101.363 113.77 101.363 113.77Z" fill="#CCF97D"/>
<path d="M10.7547 165.236C14.4824 164.25 16.4665 160.253 16.4665 160.253C16.4665 160.253 12.4382 157.844 8.71041 158.83C4.98266 159.815 2.99854 163.812 2.99854 163.812C2.99854 163.812 7.02691 166.221 10.7547 165.236Z" fill="#CCF97D"/>
<path d="M16.8874 158.118C16.8874 158.118 19.0519 154.231 17.6089 150.946C16.1058 147.661 11.5964 146.292 11.5964 146.292C11.5964 146.292 9.43194 150.179 10.8749 153.464C12.3179 156.694 16.8874 158.118 16.8874 158.118Z" fill="#CCF97D"/>
<path d="M307.231 166.878C310.658 168.52 315.107 166.878 315.107 166.878C315.107 166.878 314.025 162.607 310.538 161.02C307.111 159.377 302.661 161.02 302.661 161.02C302.661 161.02 303.804 165.235 307.231 166.878Z" fill="#CCF97D"/>
<path d="M134.732 185.11C134.732 185.11 134.251 181.989 131.967 180.62C129.622 179.251 126.315 180.073 126.315 180.073C126.315 180.073 126.736 183.193 129.081 184.562C131.426 185.986 134.732 185.11 134.732 185.11Z" fill="#CCF97D"/>
<path d="M140.865 181.277C142.128 179.032 140.805 176.131 140.805 176.131C140.805 176.131 137.438 176.897 136.175 179.142C134.913 181.387 136.236 184.288 136.236 184.288C136.236 184.288 139.603 183.522 140.865 181.277Z" fill="#CCF97D"/>
</svg>
