<svg width="122" height="142" viewBox="0 0 122 142" fill="none" xmlns="http://www.w3.org/2000/svg">
<path d="M61.3453 67.5393C61.3453 67.5393 61.3637 67.5175 61.3453 67.5393C61.4187 67.3867 61.327 67.4521 61.3453 67.5393Z" fill="#CCF97D"/>
<path d="M116.374 64.7277C116.59 64.6188 116.414 64.7277 116.374 64.7277V64.7277Z" fill="#CCF97D"/>
<path d="M116.374 64.7274C113.859 66.1979 110.817 65.8303 108.711 63.711C111.675 62.7163 115.575 59.7537 116.452 56.272C115.477 59.4077 111.967 61.7864 109.276 62.7812C107.248 63.5164 106.02 62.9109 104.187 62.0027C103.173 61.4404 101.944 61.6783 100.969 62.2189C100.131 62.673 99.429 63.4083 98.7075 64.0354C97.011 65.5059 95.1195 65.6357 93.033 65.4194C90.771 65.1815 82.3665 63.0623 81.723 62.9325C83.2635 61.5053 84.765 60.0132 86.442 58.7589C88.1385 59.559 89.913 60.3375 91.8045 60.1213C92.8575 60.0132 93.228 59.6888 94.203 60.1862C94.983 60.5754 95.9385 60.9647 96.816 60.7917C97.2255 60.7484 101.145 59.1698 101.145 58.8454C101.145 58.8022 98.3565 59.8185 98.1225 59.8834C96.777 60.3375 95.6655 59.9915 94.4955 59.1698C96.855 57.8723 99.3315 57.3533 101.866 56.7478C99.7215 56.9424 97.4205 56.9208 95.3535 57.656C92.799 58.521 90.927 58.9103 88.4505 57.4182C91.9995 55.3854 95.7825 56.1639 99.5655 55.1692C103.348 54.196 105.805 50.1954 107.502 46.5624C106.371 48.4221 104.908 50.0224 103.504 51.6443C101.574 53.4608 99.429 53.9149 96.933 53.8068C94.4175 53.6987 91.9605 53.3743 89.484 53.9798C86.9685 54.6069 84.648 55.9477 82.4835 57.4398C82.971 55.3638 84.102 52.8769 85.701 51.5794C83.79 52.7472 82.2105 55.3854 81.528 57.6344C81.0405 59.2779 77.979 60.7268 76.5945 61.635C76.7115 61.7648 65.4795 61.0944 62.106 66.5007C61.5015 64.1435 61.7745 61.5485 62.3595 59.213C62.5155 58.5643 62.7105 57.9372 62.925 57.31C63.1005 56.8127 64.407 56.1423 65.7915 55.5368C65.811 55.5368 65.8305 55.5368 65.8695 55.5368C66.0255 55.5152 66.2205 55.5152 66.435 55.5152C66.552 55.5152 66.6495 55.5152 66.786 55.5152C66.903 55.5152 67.0395 55.5368 67.176 55.5368C67.722 55.5584 68.346 55.6665 69.009 55.7963C69.672 55.9477 70.3935 56.1639 71.0955 56.4234C71.7975 56.6829 72.4995 57.0073 73.1235 57.3317C73.767 57.656 74.352 58.002 74.8395 58.3048C75.093 58.4562 75.3075 58.6075 75.5025 58.7373C75.6975 58.867 75.873 58.9752 76.0095 59.0833C76.2825 59.2779 76.4385 59.386 76.4385 59.386C76.4385 59.386 76.302 59.2563 76.0485 59.0184C75.9315 58.8887 75.756 58.7589 75.5805 58.6075C75.405 58.4345 75.1905 58.2615 74.9565 58.0885C74.508 57.6993 73.962 57.2884 73.3575 56.8559C72.753 56.4234 72.0705 56.0125 71.388 55.6233C70.686 55.2557 69.984 54.9097 69.282 54.6502C69.087 54.5853 68.9115 54.5204 68.7165 54.4555C68.8335 54.4123 68.931 54.3907 69.0285 54.3474C74.4105 52.5525 78.642 50.3035 83.634 47.5788C84.141 48.5303 88.8015 48.7033 89.8935 48.7682C92.5065 48.9195 95.256 48.3789 96.933 45.9353C93.9885 49.2007 89.5035 47.7085 86.052 46.4759C89.406 45.2217 92.9355 44.9405 96.4455 44.7459C99.546 44.5729 102.744 44.0107 104.674 41.0048C101.145 45.546 94.4565 43.4484 89.7375 43.8377C91.2585 41.6752 94.1835 38.0205 97.089 39.318C95.724 38.4746 93.7935 39.2099 92.487 39.8154C90.5175 40.702 87.885 43.989 87.924 44.0755C83.4195 44.7675 79.5975 47.1247 75.522 49.179C77.1795 45.8704 79.1295 42.4753 82.2105 40.6371C79.461 41.7833 77.355 44.1837 75.522 46.6489C74.4105 48.141 66.5325 52.4444 65.382 52.466C67.1955 49.7413 69.7305 47.795 71.7 45.2217C73.2015 43.2538 74.313 40.8534 75.1125 38.453C77.9985 37.1988 81.489 36.723 83.6535 35.5769C84.7845 34.9714 86.286 34.2145 87.3975 33.4577C89.055 32.3115 93.735 29.0029 95.6655 30.9492C93.5985 28.246 87.651 32.052 85.467 32.917C86.4225 31.0789 87.144 28.8731 88.8015 27.6405C90.459 26.343 92.5065 25.8024 94.4565 25.2834C97.9275 24.3968 102.354 23.6183 103.836 19.4663C101.281 24.7211 94.281 23.2723 89.8935 24.6995C91.395 22.7533 92.838 20.7638 94.4955 18.9905C92.5065 20.6124 90.7515 22.4938 88.9185 24.3103C87.3 25.9105 85.779 27.0134 84.5115 28.9596C83.205 30.9491 82.191 32.744 80.124 33.782C78.7785 34.4092 77.3745 34.7335 75.99 35.2093C76.1655 34.3443 76.302 33.4793 76.38 32.6143C76.4775 31.706 76.9845 31.5546 77.5305 30.9059C78.7395 29.5003 79.4805 27.6838 79.929 25.8456C80.8065 22.2559 81.411 12.3949 81.294 8.69702C80.8845 13.3896 79.8705 25.651 76.497 29.0462C76.2045 21.7369 72.441 16.9794 66.8445 13.6275C69.4965 15.5089 72.0705 17.6714 73.611 20.7854C75.3465 24.3103 75.5415 28.592 74.8785 32.4196C74.2935 31.2735 73.5135 30.2355 72.6555 29.3273C72.246 28.8948 71.817 28.4839 71.3685 28.0946C71.661 27.4243 71.7975 26.689 71.8365 25.9538C71.973 23.2074 70.8225 20.5043 69.6915 18.1255C70.569 20.7854 71.817 24.5698 70.413 27.2729C68.073 25.3267 63.978 21.2611 65.7525 17.4768C64.0755 20.1583 66.045 24.4617 67.722 26.5593C69.8085 29.1759 71.778 29.2408 74.4885 34.2578C73.8645 36.723 72.87 39.0153 71.5635 41.221C70.9395 42.2807 70.179 43.2322 69.3405 44.1188C68.7945 44.681 68.2485 45.6758 67.605 45.0486C67.1175 44.5729 66.63 44.0755 66.1425 43.5782C65.187 42.5834 64.29 41.567 63.432 40.4642C62.34 39.0585 62.3985 38.799 62.886 37.069C63.588 34.5821 64.563 32.225 65.616 29.8895C65.6355 29.9544 65.655 29.976 65.655 29.976C65.655 29.976 66.8055 29.4354 67.098 28.3758C67.41 27.3161 66.7665 26.1484 66.7665 26.1484C66.7665 26.1484 65.616 26.689 65.3235 27.7486C65.109 28.5272 65.382 29.3489 65.5575 29.7381C64.0365 32.1818 62.613 34.7119 61.5795 37.4583C60.273 34.82 59.844 31.9007 59.7075 28.938C59.5515 25.6078 59.727 21.2179 62.262 18.9256C59.0055 21.1098 58.401 26.4295 58.2255 30.2355C56.646 27.1864 56.5485 22.7533 57.309 19.4014C56.061 22.883 55.671 27.6838 57.114 31.1654C57.4455 31.9872 58.167 32.6359 58.206 33.5225C58.2255 34.0632 58.284 34.6038 58.362 35.1444C58.6155 36.8095 59.064 38.3882 59.688 39.9452C56.1585 38.6044 53.838 35.5553 53.6625 31.3817C53.4675 33.8902 54.033 36.3338 55.476 38.3017C56.373 39.491 57.5235 40.4642 58.752 41.1994C59.805 41.7833 60.6435 41.913 61.248 43.0592C62.0475 44.3783 62.9055 45.6542 63.822 46.8652C64.8555 48.2708 65.109 47.9897 63.9195 49.3088C61.677 51.6875 60 54.9745 58.986 58.1967C57.855 53.7419 57.1725 49.179 55.0665 45.1352C54.384 43.9025 50.289 32.7873 50.796 30.7329C51.4395 28.0947 52.3365 25.9754 53.214 23.402C54.2085 20.5043 54.8715 17.4551 55.047 14.3411C55.164 12.1138 55.242 7.91852 52.668 7.2914C55.3395 8.1564 54.774 12.7409 54.4425 14.9899C53.9745 18.1688 52.98 21.153 51.732 24.0508C51.0885 21.499 50.523 18.904 49.977 16.309C49.431 13.4329 50.0355 10.4486 49.314 7.61577C49.5675 9.43227 49.2555 11.2488 49.041 13.0436C48.8265 15.0764 48.9825 17.001 49.1775 19.0338C46.896 16.8064 45.999 13.6275 45.6675 10.3621C45.609 13.6491 46.116 17.0443 48.0855 19.6393C48.456 20.115 48.8265 20.5908 49.275 21.0016C49.743 21.4558 50.2695 24.0508 50.601 26.7539C49.6845 28.9164 48.8655 31.1654 48.534 33.5442C46.6815 31.4249 44.712 29.5219 43.035 27.2296C42.3525 26.2998 42.567 24.2022 42.3915 22.9911C42.1965 21.6504 41.9625 20.288 41.6895 18.9689C41.319 17.0659 41.1045 15.1413 40.812 13.2166C40.305 10.254 38.7645 8.82677 36.6195 6.98865C38.94 9.7134 39.993 11.4866 39.915 15.271C39.837 17.866 40.227 20.4826 40.2855 23.056C39.174 21.2395 38.121 19.3149 36.795 17.693C35.5275 16.1576 33.9675 14.9466 32.544 13.6059C34.299 15.8116 36.054 17.8011 37.302 20.4394C38.5305 23.0777 39.5835 25.824 40.9095 28.3325C37.77 27.6838 35.703 25.8024 34.884 22.3424C35.352 26.7107 38.1405 29.0029 41.826 29.9544C43.1715 32.2899 48.0465 36.4635 49.2555 39.7505C49.431 40.2263 49.626 40.6804 49.8405 41.1129C48.417 41.0264 46.974 41.221 45.57 41.4589C44.4975 41.6319 43.6005 40.4425 43.0545 39.4045C41.9235 37.3502 41.553 35.3174 39.291 34.474C41.943 35.9229 41.787 39.4045 43.542 41.7833C40.461 42.259 36.0735 42.778 35.859 38.1286C35.2545 42.1941 38.4525 43.6214 41.5335 44.0755C43.3275 44.335 48.7875 43.1024 51.732 44.5945C53.565 47.795 54.3645 51.255 54.9495 54.9745C55.515 58.5859 56.334 61.8945 57.309 65.3978C56.1195 64.749 51.2835 63.4948 49.0215 57.2884C48.0075 54.4988 47.5785 51.4713 45.843 49.0493C47.052 51.2766 47.247 53.8284 47.715 56.3153C46.584 55.6882 45.7065 54.4123 45.024 53.2662C44.8875 53.0283 43.62 50.1089 43.5225 49.7413C43.7565 52.2498 45.0435 55.1908 46.7205 56.8775C47.52 57.6777 47.793 57.5047 48.2025 58.4778C48.495 59.7753 49.1385 61.0295 49.86 62.1108C47.6565 61.2674 45.453 60.424 43.269 59.4725C41.046 57.0073 35.0205 51.6659 31.725 38.2152C31.335 36.6365 31.023 35.0363 30.4575 33.5009C30.126 32.6143 29.775 31.7709 29.3655 30.9275C28.839 29.7814 28.7805 29.8679 29.1315 28.765C29.814 26.5593 29.5995 24.1373 29.5215 21.845C29.463 18.6661 28.8 15.2278 26.304 13.3031C27.9225 14.9034 28.527 17.3038 28.5465 19.6393C26.7525 17.693 25.2705 15.444 23.535 13.4545C25.173 15.9198 26.5185 18.6445 28.293 21.0233C28.605 21.4341 28.371 21.9748 28.332 22.4721C28.2345 24.1156 28.1175 25.824 27.591 27.381C26.3625 24.8077 25.563 21.9315 23.847 19.6609C22.2675 17.5633 20.0055 16.3306 18.348 14.3411C20.2395 17.2605 22.872 19.0986 24.1395 22.537C25.173 25.3483 25.9335 28.2677 26.9475 31.1005C24.9585 29.9328 22.7355 29.0245 21.156 27.1648C21.039 24.8509 20.9025 22.4721 19.869 20.3961C20.5125 22.2343 20.5125 24.1805 20.3955 26.1051C18.192 22.5803 16.7685 18.904 12.42 18.7743C17.256 19.6393 17.451 24.3752 19.83 28.1379C16.398 28.0082 13.239 26.1268 9.80699 25.8889C11.9325 26.343 13.863 27.381 15.852 28.3109C16.4955 28.6136 20.5125 30.495 20.961 29.63C22.9305 31.8141 27.903 34.82 28.0005 34.6038C28.761 37.8043 31.3155 43.4484 32.0565 46.6057C30.828 46.0434 26.577 43.3187 25.251 43.0592C24.276 42.8645 24.042 41.4805 23.457 40.5939C22.0725 38.4963 20.22 36.7014 18.2505 35.2958C20.298 37.2204 22.5015 39.837 23.3205 42.7348C22.5795 42.6267 17.412 42.5618 17.217 41.9347C16.515 39.6424 14.487 38.3233 12.9855 36.7446C14.1555 38.3449 15.813 39.7938 16.359 41.8482C14.565 41.4589 12.927 40.6804 11.172 40.1398C9.14399 39.5127 7.05749 39.4045 4.97099 39.3613C7.97399 39.7505 10.6065 40.5507 13.356 41.9347C12.264 42.1725 10.821 42.8645 9.61199 43.7295C8.36399 44.6378 6.62849 47.8383 4.97099 47.6004C6.56999 48.0978 8.79299 45.1568 10.1385 44.4215C11.172 43.8809 15.7545 43.0159 15.7155 42.9294C19.8495 44.2918 24.4125 44.3999 28.2735 46.6922C30.126 47.795 31.413 49.698 32.8365 51.3848C34.2795 53.0932 35.7225 54.8015 37.107 56.5532C34.923 55.7963 32.7195 55.7314 30.4965 56.272C29.5605 56.5099 25.212 58.0885 25.134 58.2399C25.134 58.1318 20.688 57.2019 20.3955 57.0722C20.0835 56.9208 15.735 53.9798 13.746 55.1908C15.345 55.3422 16.71 55.5368 18.0165 56.5099C19.674 57.7209 21.1365 58.7589 23.0865 59.2995C20.181 60.6187 17.49 60.8349 14.3895 60.5538C11.4645 60.2727 8.55899 59.905 5.65349 60.4673C11.5035 59.7969 17.0415 62.8028 22.833 60.8349C25.992 59.7537 29.0925 58.1318 32.466 58.0453C33.987 58.002 35.4495 58.4129 36.834 59.0833C37.926 59.6023 44.907 63.5597 45.726 63.9489C44.049 64.4463 42.45 65.1599 40.7925 65.7222C40.032 66.0033 39.057 66.3277 38.3745 65.8087C36.8535 64.6409 35.781 63.192 34.026 62.3919C32.622 61.7648 31.1595 61.5053 29.658 61.3755C32.739 62.1108 34.845 63.5813 36.9315 66.1763C36.288 66.133 30.087 65.2032 28.6245 65.1599C26.577 65.0734 24.549 65.1383 22.521 65.268C25.485 65.5275 28.41 65.9168 31.296 66.7169C28.1955 69.2038 24.8025 72.6422 20.922 69.4633C23.106 71.7772 26.2845 71.7339 28.878 70.3067C30.126 69.6147 31.2375 68.6415 32.4855 67.9712C34.2405 67.0413 36.21 68.2739 38.082 68.4685C40.8315 68.7497 43.386 67.8198 46.077 67.3873C48.768 66.9548 53.6235 68.0793 53.5845 67.7982C55.4175 68.8145 56.8605 73.5288 56.763 75.7994C56.4315 82.5464 57.426 90.2449 56.8215 94.9159C56.0025 101.122 56.841 110.854 55.2615 117.146C56.8215 118.703 63.081 118.963 65.187 117.471C65.0505 110.681 63.1395 104.171 63.081 97.4028C63.003 90.2017 62.4765 76.167 62.769 76.2968C64.2705 71.5393 65.07 66.2412 70.335 65.4194C75.3075 64.6193 79.851 65.3978 84.7455 66.133C85.6425 67.6252 87.261 69.1389 88.0995 69.6795C88.8795 70.1769 90.9465 70.8905 91.863 70.9122C94.437 70.9338 97.011 70.112 97.557 71.1717C98.103 72.2529 98.805 73.2477 99.702 74.0045C101.028 75.0858 102.607 75.4967 104.206 75.0858C101.593 75.3669 99.4485 73.4423 98.5125 70.8257C99.6825 71.3447 100.716 72.2096 102.022 72.3178C104.265 72.5124 105.727 70.6527 107.716 69.9174C105.747 70.3283 103.953 72.1015 101.866 71.3447C100.813 70.9554 99.9945 70.0472 99.039 69.4633C97.7715 68.6848 96.7965 68.9875 95.4705 69.2687C93.4035 69.8309 90.0105 68.8578 88.665 66.7818C91.824 67.517 96.114 68.2307 98.9025 65.96C99.897 65.1599 100.677 63.9922 101.769 63.365C103.797 62.1324 107.599 64.23 107.541 64.2949C110.134 66.9548 114.132 66.998 116.901 64.6193C116.628 64.576 116.511 64.6625 116.374 64.7274ZM61.3455 67.5387C61.326 67.4522 61.4235 67.3873 61.3455 67.5387V67.5387Z" fill="#FCFC03"/>
<path d="M43.3851 49.6766C43.3851 49.6549 43.3851 49.6548 43.3851 49.6331C43.3668 49.6331 43.3668 49.6331 43.3851 49.6766Z" fill="#CCF97D"/>
<path d="M61.3455 67.5379C61.3619 67.5179 61.3455 67.5379 61.3455 67.5379V67.5379Z" fill="white"/>
<path d="M17.802 68.9659C16.7685 69.4633 16.359 70.9338 16.359 70.9338C16.359 70.9338 17.607 71.6041 18.6405 71.1068C19.674 70.6094 20.0835 69.1389 20.0835 69.1389C20.0835 69.1389 18.8355 68.4685 17.802 68.9659Z" fill="#9FAF08"/>
<path d="M18.0945 64.4463C18.0945 64.4463 17.6265 65.8952 18.192 66.9764C18.7575 68.0577 20.1225 68.3388 20.1225 68.3388C20.1225 68.3388 20.5905 66.8899 20.025 65.8087C19.4595 64.749 18.0945 64.4463 18.0945 64.4463Z" fill="#9FAF08"/>
<path d="M35.391 36.0526C35.391 36.0526 36.4245 36.6149 37.2825 36.204C38.1405 35.7931 38.472 34.5821 38.472 34.5821C38.472 34.5821 37.4385 34.0199 36.5805 34.4307C35.742 34.8416 35.391 36.0526 35.391 36.0526Z" fill="#9FAF08"/>
<path d="M38.4915 33.9117C38.4915 33.9117 38.8815 32.7007 38.4135 31.8141C37.9455 30.9275 36.8145 30.6896 36.8145 30.6896C36.8145 30.6896 36.4245 31.9006 36.8925 32.7872C37.3605 33.6738 38.4915 33.9117 38.4915 33.9117Z" fill="#9FAF08"/>
<path d="M57.699 14.3411C57.699 14.3411 56.8215 15.1628 56.802 16.2008C56.7825 17.2388 57.66 18.0822 57.66 18.0822C57.66 18.0822 58.5375 17.2604 58.557 16.2224C58.557 15.1844 57.699 14.3411 57.699 14.3411Z" fill="#9FAF08"/>
<path d="M58.1865 18.3418C58.1865 18.3418 59.025 19.2284 59.9415 19.1203C60.858 19.0122 61.521 17.9742 61.521 17.9742C61.521 17.9742 60.6825 17.0875 59.766 17.1957C58.8495 17.3038 58.1865 18.3418 58.1865 18.3418Z" fill="#9FAF08"/>
<path d="M94.632 18.5364C94.632 18.5364 95.5095 17.7147 95.529 16.6767C95.5485 15.6387 94.671 14.7953 94.671 14.7953C94.671 14.7953 93.7935 15.617 93.774 16.655C93.774 17.693 94.632 18.5364 94.632 18.5364Z" fill="#9FAF08"/>
<path d="M95.1585 18.8391C95.1585 18.8391 95.997 19.7257 96.9135 19.6176C97.83 19.5095 98.493 18.4715 98.493 18.4715C98.493 18.4715 97.6545 17.5849 96.738 17.693C95.8215 17.7795 95.1585 18.8391 95.1585 18.8391Z" fill="#9FAF08"/>
<path d="M84.6675 38.9072C85.311 37.8908 84.9795 36.4203 84.9795 36.4203C84.9795 36.4203 83.595 36.5717 82.9515 37.5664C82.308 38.5828 82.6395 40.0533 82.6395 40.0533C82.6395 40.0533 84.024 39.9019 84.6675 38.9072Z" fill="#9FAF08"/>
<path d="M84.2385 42.8429C85.2135 43.4484 86.5005 42.9294 86.5005 42.9294C86.5005 42.9294 86.2275 41.4372 85.2525 40.8317C84.2775 40.2262 82.9905 40.7452 82.9905 40.7452C82.9905 40.7452 83.2635 42.2374 84.2385 42.8429Z" fill="#9FAF08"/>
<path d="M119.027 62.9324C119.67 61.9377 119.339 60.4456 119.339 60.4456C119.339 60.4456 117.954 60.5969 117.311 61.5917C116.667 62.6081 116.999 64.0786 116.999 64.0786C116.999 64.0786 118.383 63.9272 119.027 62.9324Z" fill="#9FAF08"/>
<path d="M119.612 64.8355C118.636 64.23 117.349 64.749 117.349 64.749C117.349 64.749 117.622 66.2411 118.597 66.8466C119.572 67.4521 120.859 66.9331 120.859 66.9331C120.859 66.9331 120.587 65.441 119.612 64.8355Z" fill="#9FAF08"/>
<path d="M33.3825 7.26981C34.611 7.59418 35.859 6.57781 35.859 6.57781C35.859 6.57781 35.1375 5.04244 33.9285 4.71806C32.7 4.39369 31.452 5.41006 31.452 5.41006C31.452 5.41006 32.154 6.94544 33.3825 7.26981Z" fill="#9FAF08"/>
<path d="M37.8285 3.55026C37.9845 2.16626 36.951 0.890381 36.951 0.890381C36.951 0.890381 35.6445 1.84188 35.4885 3.22589C35.3325 4.60989 36.366 5.88576 36.366 5.88576C36.366 5.88576 37.6725 4.93426 37.8285 3.55026Z" fill="#9FAF08"/>
<path d="M84.414 10.1242C83.205 10.4702 82.503 12.0272 82.503 12.0272C82.503 12.0272 83.79 13.022 84.999 12.676C86.208 12.33 86.91 10.773 86.91 10.773C86.91 10.773 85.6425 9.77824 84.414 10.1242Z" fill="#9FAF08"/>
<path d="M84.375 13.7356C83.478 13.3247 82.4055 13.9302 82.4055 13.9302C82.4055 13.9302 82.7955 15.1845 83.6925 15.5954C84.5895 16.0062 85.662 15.4007 85.662 15.4007C85.662 15.4007 85.272 14.1465 84.375 13.7356Z" fill="#9FAF08"/>
<path d="M82.0935 15.5953C82.0935 15.5953 81.5865 17.2172 82.2105 18.4282C82.8345 19.6392 84.375 19.9636 84.375 19.9636C84.375 19.9636 84.882 18.3417 84.258 17.1307C83.634 15.9197 82.0935 15.5953 82.0935 15.5953Z" fill="#9FAF08"/>
<path d="M21.39 34.82C21.156 35.685 21.6825 36.6365 21.6825 36.6365C21.6825 36.6365 22.6185 36.1824 22.8525 35.3174C23.0865 34.4524 22.56 33.5009 22.56 33.5009C22.56 33.5009 21.624 33.955 21.39 34.82Z" fill="#9FAF08"/>
<path d="M23.574 35.3607C22.716 36.0527 22.6185 37.5015 22.6185 37.5015C22.6185 37.5015 23.9055 37.8259 24.744 37.1339C25.602 36.4419 25.6995 34.993 25.6995 34.993C25.6995 34.993 24.4125 34.647 23.574 35.3607Z" fill="#9FAF08"/>
<path d="M23.418 38.5394C23.418 38.5394 23.886 39.1666 24.471 39.1882C25.056 39.2098 25.5435 38.6043 25.5435 38.6043C25.5435 38.6043 25.0755 37.9772 24.4905 37.9556C23.9055 37.9556 23.418 38.5394 23.418 38.5394Z" fill="#9FAF08"/>
<path d="M78.174 13.8005C77.4525 14.2763 77.2575 15.4008 77.2575 15.4008C77.2575 15.4008 78.252 15.79 78.9735 15.3143C79.695 14.8385 79.89 13.714 79.89 13.714C79.89 13.714 78.915 13.3248 78.174 13.8005Z" fill="#9FAF08"/>
<path d="M77.6475 13.2166C78.72 13.3464 79.7145 12.33 79.7145 12.33C79.7145 12.33 78.954 11.0974 77.8815 10.946C76.809 10.8163 75.8145 11.8326 75.8145 11.8326C75.8145 11.8326 76.575 13.0869 77.6475 13.2166Z" fill="#9FAF08"/>
<path d="M79.7925 10.946C79.7925 10.946 79.8315 10.1242 79.4025 9.64845C78.9735 9.1727 78.2325 9.2592 78.2325 9.2592C78.2325 9.2592 78.1935 10.081 78.6225 10.5567C79.0515 11.0108 79.7925 10.946 79.7925 10.946Z" fill="#9FAF08"/>
<path d="M97.947 29.6517C98.7855 29.522 99.351 28.5488 99.351 28.5488C99.351 28.5488 98.571 27.7703 97.7325 27.9001C96.894 28.0298 96.3285 29.003 96.3285 29.003C96.3285 29.003 97.1085 29.7815 97.947 29.6517Z" fill="#9FAF08"/>
<path d="M97.2645 32.3763C98.22 32.9602 99.4875 32.4196 99.4875 32.4196C99.4875 32.4196 99.2145 30.9491 98.259 30.3868C97.3035 29.8029 96.036 30.3436 96.036 30.3436C96.036 30.3436 96.309 31.7924 97.2645 32.3763Z" fill="#9FAF08"/>
<path d="M95.4705 31.6195C95.4705 31.6195 95.139 32.3764 95.3925 32.9819C95.6265 33.5874 96.348 33.8469 96.348 33.8469C96.348 33.8469 96.6795 33.09 96.426 32.4845C96.192 31.8574 95.4705 31.6195 95.4705 31.6195Z" fill="#9FAF08"/>
<path d="M18.3675 53.4608C18.4845 54.6069 19.557 55.4286 19.557 55.4286C19.557 55.4286 20.4345 54.369 20.337 53.2229C20.22 52.0768 19.1475 51.255 19.1475 51.255C19.1475 51.255 18.2505 52.3146 18.3675 53.4608Z" fill="#9FAF08"/>
<path d="M21.1755 52.8553C20.493 54.1528 21.039 55.9044 21.039 55.9044C21.039 55.9044 22.6965 55.5584 23.3595 54.2825C24.042 52.985 23.496 51.2334 23.496 51.2334C23.496 51.2334 21.858 51.5578 21.1755 52.8553Z" fill="#9FAF08"/>
<path d="M22.443 56.7044C22.443 56.7044 23.262 57.1802 23.964 56.8774C24.666 56.5747 24.9585 55.6016 24.9585 55.6016C24.9585 55.6016 24.1395 55.1258 23.4375 55.4286C22.7355 55.7313 22.443 56.7044 22.443 56.7044Z" fill="#9FAF08"/>
<path d="M100.911 49.0277C100.911 49.0277 100.618 47.6221 99.702 47.0815C98.7855 46.5408 97.5765 47.0598 97.5765 47.0598C97.5765 47.0598 97.869 48.4655 98.7855 49.0061C99.702 49.5467 100.911 49.0277 100.911 49.0277Z" fill="#9FAF08"/>
<path d="M96.387 48.141C96.387 48.141 95.7045 49.8494 96.2895 51.1901C96.8745 52.5309 98.493 53.0283 98.493 53.0283C98.493 53.0283 99.1755 51.3199 98.5905 49.9791C97.986 48.6384 96.387 48.141 96.387 48.141Z" fill="#9FAF08"/>
<path d="M94.008 50.2819C93.852 51.082 94.398 51.9254 94.398 51.9254C94.398 51.9254 95.217 51.428 95.373 50.6279C95.529 49.8061 94.983 48.9844 94.983 48.9844C94.983 48.9844 94.164 49.4601 94.008 50.2819Z" fill="#9FAF08"/>
<path d="M16.983 33.0252C16.983 33.0252 17.7435 31.8575 17.49 30.733C17.2365 29.6085 16.086 28.9597 16.086 28.9597C16.086 28.9597 15.3255 30.1275 15.579 31.252C15.8325 32.3548 16.983 33.0252 16.983 33.0252Z" fill="#9FAF08"/>
<path d="M12.6735 33.6955C12.6735 33.6955 14.2725 33.1116 14.7795 31.7276C15.306 30.3436 14.5455 28.6785 14.5455 28.6785C14.5455 28.6785 12.9465 29.2623 12.4395 30.6463C11.9325 32.0303 12.6735 33.6955 12.6735 33.6955Z" fill="#9FAF08"/>
<path d="M11.5425 28.1595C10.899 28.5703 10.704 29.5867 10.704 29.5867C10.704 29.5867 11.5815 29.9327 12.225 29.5218C12.888 29.111 13.0635 28.0946 13.0635 28.0946C13.0635 28.0946 12.2055 27.7486 11.5425 28.1595Z" fill="#9FAF08"/>
<path d="M87.027 22.4072C88.0215 22.7748 89.133 22.0396 89.133 22.0396C89.133 22.0396 88.6455 20.6988 87.651 20.3312C86.6565 19.9636 85.545 20.6988 85.545 20.6988C85.545 20.6988 86.0325 22.0396 87.027 22.4072Z" fill="#9FAF08"/>
<path d="M90.147 20.7422C90.147 20.7422 90.5565 18.9473 89.7765 17.7147C88.9965 16.4821 87.339 16.3091 87.339 16.3091C87.339 16.3091 86.9295 18.104 87.7095 19.3366C88.47 20.5476 90.147 20.7422 90.147 20.7422Z" fill="#9FAF08"/>
<path d="M91.3755 19.6609C91.3755 19.6609 92.1165 19.0338 92.1555 18.1904C92.1945 17.3687 91.5315 16.655 91.5315 16.655C91.5315 16.655 90.7905 17.2822 90.7515 18.1255C90.7125 18.9473 91.3755 19.6609 91.3755 19.6609Z" fill="#9FAF08"/>
<path d="M69.3405 11.0758C69.4965 9.69177 68.463 8.41589 68.463 8.41589C68.463 8.41589 67.1565 9.36739 67.0005 10.7514C66.8445 12.1354 67.878 13.4113 67.878 13.4113C67.878 13.4113 69.1845 12.4598 69.3405 11.0758Z" fill="#9FAF08"/>
<path d="M71.3295 13.5194C71.9925 12.7409 71.8755 11.4217 71.8755 11.4217C71.8755 11.4217 70.6665 11.3569 70.0035 12.1354C69.3405 12.9139 69.4575 14.233 69.4575 14.233C69.4575 14.233 70.6665 14.2979 71.3295 13.5194Z" fill="#9FAF08"/>
<path d="M70.725 15.1629C70.725 15.1629 71.895 16.2874 73.143 16.0927C74.391 15.8981 75.2295 14.4276 75.2295 14.4276C75.2295 14.4276 74.0595 13.3031 72.8115 13.4977C71.5635 13.6924 70.725 15.1629 70.725 15.1629Z" fill="#9FAF08"/>
<path d="M20.142 44.8324C20.142 44.8324 19.245 46.238 19.5375 47.6004C19.83 48.9412 21.234 49.7413 21.234 49.7413C21.234 49.7413 22.131 48.3357 21.8385 46.9733C21.5265 45.6109 20.142 44.8324 20.142 44.8324Z" fill="#9FAF08"/>
<path d="M16.8855 46.1083C16.515 47.103 17.061 48.2924 17.061 48.2924C17.061 48.2924 18.2115 47.8815 18.582 46.8868C18.9525 45.892 18.4065 44.7026 18.4065 44.7026C18.4065 44.7026 17.256 45.1135 16.8855 46.1083Z" fill="#9FAF08"/>
<path d="M14.3505 44.4432C13.2585 45.1352 12.9465 46.8219 12.9465 46.8219C12.9465 46.8219 14.409 47.4058 15.501 46.7138C16.593 46.0218 16.905 44.3351 16.905 44.3351C16.905 44.3351 15.4425 43.7512 14.3505 44.4432Z" fill="#9FAF08"/>
<path d="M110.953 51.082C110.953 51.082 110.251 49.5466 109.023 49.2006C107.794 48.8763 106.527 49.871 106.527 49.871C106.527 49.871 107.229 51.4064 108.457 51.7524C109.686 52.0984 110.953 51.082 110.953 51.082Z" fill="#9FAF08"/>
<path d="M107.873 54.5204C107.873 54.5204 108.068 53.2013 107.463 52.3795C106.839 51.5578 105.649 51.5361 105.649 51.5361C105.649 51.5361 105.454 52.8553 106.059 53.677C106.664 54.4988 107.873 54.5204 107.873 54.5204Z" fill="#9FAF08"/>
<path d="M104.636 52.8336C104.636 52.8336 103.485 54.0014 103.524 55.3854C103.563 56.7694 104.772 57.8723 104.772 57.8723C104.772 57.8723 105.923 56.7045 105.884 55.3205C105.864 53.9149 104.636 52.8336 104.636 52.8336Z" fill="#9FAF08"/>
<path d="M105.961 23.0344C107.073 23.6831 108.516 23.0776 108.516 23.0776C108.516 23.0776 108.184 21.3909 107.073 20.7421C105.961 20.0934 104.518 20.6989 104.518 20.6989C104.518 20.6989 104.869 22.364 105.961 23.0344Z" fill="#9FAF08"/>
<path d="M103.27 22.0397C103.27 22.0397 102.783 23.2507 103.192 24.2238C103.602 25.1969 104.772 25.5429 104.772 25.5429C104.772 25.5429 105.259 24.3319 104.85 23.3588C104.44 22.3857 103.27 22.0397 103.27 22.0397Z" fill="#9FAF08"/>
<path d="M102.685 25.7592C102.958 24.3968 102.042 23.0128 102.042 23.0128C102.042 23.0128 100.657 23.8346 100.384 25.1753C100.112 26.5377 101.028 27.9217 101.028 27.9217C101.028 27.9217 102.412 27.1216 102.685 25.7592Z" fill="#9FAF08"/>
<path d="M55.3005 4.22069C55.9245 3.00969 55.4175 1.38782 55.4175 1.38782C55.4175 1.38782 53.877 1.71219 53.253 2.90156C52.629 4.11256 53.136 5.73443 53.136 5.73443C53.136 5.73443 54.6765 5.43168 55.3005 4.22069Z" fill="#9FAF08"/>
<path d="M54.3255 7.1832C54.3255 7.1832 55.398 7.76708 56.295 7.33458C57.192 6.90208 57.543 5.64783 57.543 5.64783C57.543 5.64783 56.4705 5.06396 55.5735 5.49645C54.6765 5.90733 54.3255 7.1832 54.3255 7.1832Z" fill="#9FAF08"/>
<path d="M55.164 8.58897C55.164 8.58897 55.8465 10.146 57.0555 10.492C58.2645 10.838 59.5515 9.86485 59.5515 9.86485C59.5515 9.86485 58.869 8.30785 57.66 7.96185C56.451 7.61585 55.164 8.58897 55.164 8.58897Z" fill="#9FAF08"/>
<path d="M41.124 32.9602C40.7145 33.7387 41.046 34.7983 41.046 34.7983C41.046 34.7983 42.0405 34.5821 42.45 33.8036C42.8595 33.0251 42.528 31.9655 42.528 31.9655C42.528 31.9655 41.5335 32.1817 41.124 32.9602Z" fill="#9FAF08"/>
<path d="M42.606 34.6254C42.021 34.9065 41.787 35.7283 41.787 35.7283C41.787 35.7283 42.489 36.1176 43.074 35.8364C43.659 35.5553 43.893 34.7335 43.893 34.7335C43.893 34.7335 43.191 34.3443 42.606 34.6254Z" fill="#9FAF08"/>
<path d="M43.971 36.2256C43.191 35.9878 42.3525 36.6365 42.3525 36.6365C42.3525 36.6365 42.801 37.6529 43.581 37.8692C44.361 38.107 45.1995 37.4583 45.1995 37.4583C45.1995 37.4583 44.751 36.4635 43.971 36.2256Z" fill="#9FAF08"/>
<path d="M44.8875 40.2911C45.6675 40.529 46.506 39.8803 46.506 39.8803C46.506 39.8803 46.0575 38.8639 45.2775 38.6476C44.4975 38.4098 43.659 39.0585 43.659 39.0585C43.659 39.0585 44.1075 40.0749 44.8875 40.2911Z" fill="#9FAF08"/>
<path d="M67.371 56.9424C66.318 57.6127 66.0255 59.2346 66.0255 59.2346C66.0255 59.2346 67.449 59.7969 68.502 59.1481C69.555 58.4994 69.8475 56.8559 69.8475 56.8559C69.8475 56.8559 68.424 56.2936 67.371 56.9424Z" fill="#9FAF08"/>
<path d="M71.193 59.0184C71.271 58.0453 70.53 57.1803 70.53 57.1803C70.53 57.1803 69.633 57.8723 69.555 58.8454C69.477 59.8186 70.218 60.6836 70.218 60.6836C70.218 60.6836 71.0955 59.9916 71.193 59.0184Z" fill="#9FAF08"/>
<path d="M63.315 11.8543C64.29 12.7409 65.811 12.4598 65.811 12.4598C65.811 12.4598 65.772 10.7298 64.8165 9.84315C63.8415 8.95652 62.3205 9.23765 62.3205 9.23765C62.3205 9.23765 62.34 10.9676 63.315 11.8543Z" fill="#9FAF08"/>
<path d="M65.7915 13.3031C65.7915 13.3031 64.8555 12.6111 63.978 12.8706C63.1005 13.1301 62.613 14.2762 62.613 14.2762C62.613 14.2762 63.549 14.9682 64.4265 14.7087C65.304 14.4276 65.7915 13.3031 65.7915 13.3031Z" fill="#9FAF08"/>
<path d="M82.893 5.25863C83.049 3.87463 82.0155 2.59875 82.0155 2.59875C82.0155 2.59875 80.709 3.55026 80.553 4.93426C80.397 6.31826 81.4305 7.59414 81.4305 7.59414C81.4305 7.59414 82.737 6.64263 82.893 5.25863Z" fill="#9FAF08"/>
<path d="M84.7455 8.39424C85.818 7.68062 86.091 5.97225 86.091 5.97225C86.091 5.97225 84.609 5.43162 83.5365 6.12362C82.464 6.83724 82.191 8.54561 82.191 8.54561C82.191 8.54561 83.6535 9.10786 84.7455 8.39424Z" fill="#9FAF08"/>
<path d="M80.787 8.02663C80.787 8.02663 80.826 6.77238 80.1435 6.10201C79.461 5.43164 78.3495 5.58301 78.3495 5.58301C78.3495 5.58301 78.3105 6.83726 78.993 7.50763C79.656 8.17801 80.787 8.02663 80.787 8.02663Z" fill="#9FAF08"/>
<path d="M32.0955 13.4329C32.0955 13.4329 32.349 12.0706 31.7445 11.1839C31.14 10.2973 29.892 10.2108 29.892 10.2108C29.892 10.2108 29.6385 11.5732 30.243 12.4598C30.8475 13.3464 32.0955 13.4329 32.0955 13.4329Z" fill="#9FAF08"/>
<path d="M32.5635 11.3136C32.31 12.3948 33.012 13.541 33.012 13.541C33.012 13.541 34.143 12.9355 34.3965 11.8542C34.65 10.773 33.948 9.62683 33.948 9.62683C33.948 9.62683 32.817 10.2323 32.5635 11.3136Z" fill="#9FAF08"/>
<path d="M30.633 14.925C31.3545 14.9034 31.9395 14.1033 31.9395 14.1033C31.9395 14.1033 31.3155 13.368 30.594 13.3896C29.8725 13.4113 29.2875 14.2114 29.2875 14.2114C29.2875 14.2114 29.9115 14.9466 30.633 14.925Z" fill="#9FAF08"/>
<path d="M8.988 19.2067C10.1775 19.6825 11.523 18.8175 11.523 18.8175C11.523 18.8175 10.9575 17.1956 9.7875 16.7415C8.598 16.2657 7.2525 17.1307 7.2525 17.1307C7.2525 17.1307 7.818 18.731 8.988 19.2067Z" fill="#9FAF08"/>
<path d="M12.537 18.212C12.537 18.212 13.3365 16.7199 12.9465 15.4008C12.5565 14.0816 11.1135 13.4113 11.1135 13.4113C11.1135 13.4113 10.314 14.9034 10.704 16.2225C11.094 17.5633 12.537 18.212 12.537 18.212Z" fill="#9FAF08"/>
<path d="M9.92399 19.8988C9.18299 20.4826 9.06599 21.7369 9.06599 21.7369C9.06599 21.7369 10.158 22.0396 10.899 21.4558C11.64 20.8719 11.757 19.6176 11.757 19.6176C11.757 19.6176 10.665 19.3149 9.92399 19.8988Z" fill="#9FAF08"/>
<path d="M2.046 49.1141C1.11 50.044 1.1295 51.774 1.1295 51.774C1.1295 51.774 2.67 51.9902 3.606 51.0603C4.542 50.1305 4.52249 48.4005 4.52249 48.4005C4.52249 48.4005 2.982 48.1842 2.046 49.1141Z" fill="#9FAF08"/>
<path d="M2.51399 45.3947C1.28549 45.1568 0.0764923 46.238 0.0764923 46.238C0.0764923 46.238 0.875992 47.7302 2.10449 47.968C3.33299 48.2059 4.54199 47.1247 4.54199 47.1247C4.54199 47.1247 3.76199 45.6325 2.51399 45.3947Z" fill="#9FAF08"/>
<path d="M6.336 50.2603C6.219 49.2655 5.28299 48.5519 5.28299 48.5519C5.28299 48.5519 4.52249 49.4818 4.61999 50.4765C4.73699 51.4713 5.67299 52.1849 5.67299 52.1849C5.67299 52.1849 6.4335 51.255 6.336 50.2603Z" fill="#9FAF08"/>
<path d="M119.358 53.7419C120.079 52.5958 119.689 50.9307 119.689 50.9307C119.689 50.9307 118.129 51.1037 117.427 52.2498C116.706 53.3959 117.096 55.061 117.096 55.061C117.096 55.061 118.636 54.8664 119.358 53.7419Z" fill="#9FAF08"/>
<path d="M119.553 54.8448C118.305 54.9096 117.349 56.2936 117.349 56.2936C117.349 56.2936 118.422 57.5479 119.689 57.4614C120.937 57.3965 121.893 56.0125 121.893 56.0125C121.893 56.0125 120.801 54.7799 119.553 54.8448Z" fill="#9FAF08"/>
<path d="M116.335 55.0825C116.335 55.0825 116.881 53.9797 116.569 53.0282C116.257 52.0767 115.204 51.6442 115.204 51.6442C115.204 51.6442 114.659 52.747 114.971 53.6985C115.263 54.65 116.335 55.0825 116.335 55.0825Z" fill="#9FAF08"/>
<path d="M106.059 15.8116C106.449 14.4925 105.63 13.0004 105.63 13.0004C105.63 13.0004 104.187 13.6707 103.816 14.9899C103.427 16.309 104.245 17.8011 104.245 17.8011C104.245 17.8011 105.688 17.1524 106.059 15.8116Z" fill="#9FAF08"/>
<path d="M104.811 18.9256C104.811 18.9256 106.176 19.769 107.346 19.2932C108.516 18.8175 109.082 17.1956 109.082 17.1956C109.082 17.1956 107.717 16.3522 106.547 16.828C105.357 17.3037 104.811 18.9256 104.811 18.9256Z" fill="#9FAF08"/>
<path d="M103.524 18.1039C103.524 18.1039 103.758 16.8713 103.212 16.0712C102.666 15.2711 101.535 15.1846 101.535 15.1846C101.535 15.1846 101.301 16.4172 101.847 17.2173C102.393 18.0174 103.524 18.1039 103.524 18.1039Z" fill="#9FAF08"/>
<path d="M66.0645 30.8194C66.0645 30.8194 67.1565 31.4897 68.0925 31.1005C69.0285 30.7112 69.477 29.4354 69.477 29.4354C69.477 29.4354 68.385 28.765 67.449 29.1542C66.4935 29.5435 66.0645 30.8194 66.0645 30.8194Z" fill="#9FAF08"/>
<path d="M63.705 29.4786C64.134 30.1273 65.0505 30.1922 65.0505 30.1922C65.0505 30.1922 65.2455 29.2191 64.797 28.5703C64.368 27.9216 63.4515 27.8567 63.4515 27.8567C63.4515 27.8567 63.2565 28.8298 63.705 29.4786Z" fill="#9FAF08"/>
<path d="M52.551 6.31826C52.551 6.31826 52.59 5.06401 51.9075 4.39364C51.225 3.72326 50.1135 3.87464 50.1135 3.87464C50.1135 3.87464 50.0745 5.12889 50.757 5.79926C51.4395 6.46964 52.551 6.31826 52.551 6.31826Z" fill="#9FAF08"/>
<path d="M47.2275 6.70748C47.3835 5.32348 46.35 4.04761 46.35 4.04761C46.35 4.04761 45.0435 4.99911 44.8875 6.38311C44.7315 7.76711 45.765 9.04298 45.765 9.04298C45.765 9.04298 47.0715 8.09148 47.2275 6.70748Z" fill="#9FAF08"/>
<path d="M45.1215 9.47549C45.1215 9.47549 45.1605 8.22124 44.478 7.55086C43.7955 6.88049 42.684 7.03186 42.684 7.03186C42.684 7.03186 42.645 8.28611 43.3275 8.95649C43.9905 9.62686 45.1215 9.47549 45.1215 9.47549Z" fill="#9FAF08"/>
<path d="M99.4095 38.7558C100.209 38.28 100.482 37.069 100.482 37.069C100.482 37.069 99.429 36.6149 98.6295 37.069C97.83 37.5448 97.557 38.7558 97.557 38.7558C97.557 38.7558 98.5905 39.2099 99.4095 38.7558Z" fill="#9FAF08"/>
<path d="M107.97 46.4759C107.97 46.4759 109.315 47.3409 110.505 46.8652C111.694 46.3894 112.26 44.7892 112.26 44.7892C112.26 44.7892 110.914 43.9242 109.725 44.3999C108.535 44.8757 107.97 46.4759 107.97 46.4759Z" fill="#9FAF08"/>
<path d="M108.594 44.5297C108.828 43.5565 108.204 42.5186 108.204 42.5186C108.204 42.5186 107.19 43.0592 106.937 44.0323C106.703 45.0054 107.327 46.0434 107.327 46.0434C107.327 46.0434 108.341 45.5028 108.594 44.5297Z" fill="#9FAF08"/>
<path d="M110.154 67.7117C108.964 68.1874 108.399 69.7877 108.399 69.7877C108.399 69.7877 109.744 70.6527 110.934 70.1769C112.123 69.7012 112.689 68.1009 112.689 68.1009C112.689 68.1009 111.343 67.236 110.154 67.7117Z" fill="#9FAF08"/>
<path d="M109.023 67.8197C109.257 66.8466 108.633 65.8086 108.633 65.8086C108.633 65.8086 107.619 66.3492 107.365 67.3223C107.131 68.2955 107.755 69.3335 107.755 69.3335C107.755 69.3335 108.789 68.7928 109.023 67.8197Z" fill="#9FAF08"/>
<path d="M10.86 50.0225C10.86 50.0225 10.431 51.6876 11.1135 52.8553C11.796 54.0231 13.356 54.2393 13.356 54.2393C13.356 54.2393 13.785 52.5742 13.1025 51.4065C12.4005 50.2603 10.86 50.0225 10.86 50.0225Z" fill="#9FAF08"/>
<path d="M9.80699 54.9312C9.80699 54.9312 10.5285 55.9043 11.4255 55.9476C12.342 55.9692 13.1025 55.0609 13.1025 55.0609C13.1025 55.0609 12.381 54.0878 11.484 54.0446C10.5675 54.0013 9.80699 54.9312 9.80699 54.9312Z" fill="#9FAF08"/>
<path d="M18.0555 13.7573C18.0555 13.7573 19.167 12.5463 19.0695 11.1406C18.972 9.75663 17.724 8.71863 17.724 8.71863C17.724 8.71863 16.6125 9.92963 16.71 11.3353C16.8075 12.7193 18.0555 13.7573 18.0555 13.7573Z" fill="#9FAF08"/>
<path d="M15.6375 14.1897C16.4175 14.7087 17.49 14.3195 17.49 14.3195C17.49 14.3195 17.295 13.0869 16.515 12.5679C15.735 12.0489 14.6625 12.4381 14.6625 12.4381C14.6625 12.4381 14.8575 13.6707 15.6375 14.1897Z" fill="#9FAF08"/>
<path d="M34.962 21.9315C34.962 21.9315 35.8005 21.0016 35.7225 19.9636C35.6445 18.904 34.7085 18.1255 34.7085 18.1255C34.7085 18.1255 33.87 19.0554 33.948 20.115C34.0065 21.153 34.962 21.9315 34.962 21.9315Z" fill="#9FAF08"/>
<path d="M32.388 20.9368C32.388 20.9368 32.544 21.8666 33.129 22.2775C33.714 22.6668 34.533 22.364 34.533 22.364C34.533 22.364 34.377 21.4341 33.792 21.0233C33.207 20.634 32.388 20.9368 32.388 20.9368Z" fill="#9FAF08"/>
<path d="M3.00149 41.2643C4.21048 40.875 4.85398 39.2964 4.85398 39.2964C4.85398 39.2964 3.54749 38.3449 2.33849 38.7342C1.12949 39.1234 0.485992 40.702 0.485992 40.702C0.485992 40.702 1.79249 41.6535 3.00149 41.2643Z" fill="#9FAF08"/>
<path d="M4.9905 38.453C4.9905 38.453 5.6925 36.9176 5.2245 35.6201C4.737 34.3226 3.2745 33.782 3.2745 33.782C3.2745 33.782 2.5725 35.3173 3.0405 36.6148C3.5085 37.8907 4.9905 38.453 4.9905 38.453Z" fill="#9FAF08"/>
<path d="M99.156 41.913C100.267 42.5617 101.711 41.913 101.711 41.913C101.711 41.913 101.359 40.2263 100.228 39.5991C99.117 38.9504 97.674 39.5991 97.674 39.5991C97.674 39.5991 98.0445 41.2642 99.156 41.913Z" fill="#9FAF08"/>
<path d="M43.2105 49.1141C43.2105 49.1141 43.0545 47.8815 42.3135 47.3408C41.553 46.8002 40.4805 47.1246 40.4805 47.1246C40.4805 47.1246 40.617 48.3572 41.3775 48.8978C42.138 49.4601 43.2105 49.1141 43.2105 49.1141Z" fill="#9FAF08"/>
<path d="M45.1995 47.6004C45.609 46.7138 45.18 45.5676 45.18 45.5676C45.18 45.5676 44.088 45.8704 43.6785 46.757C43.269 47.6436 43.698 48.7897 43.698 48.7897C43.698 48.7897 44.79 48.487 45.1995 47.6004Z" fill="#9FAF08"/>
</svg>
